M48
; DRILL file {KiCad 9.0.2+dfsg-1} date 2025-11-29T03:23:56-0800
; FORMAT={-:-/ absolute / metric / decimal}
; #@! TF.CreationDate,2025-11-29T03:23:56-08:00
; #@! TF.GenerationSoftware,Kicad,Pcbnew,9.0.2+dfsg-1
; #@! TF.FileFunction,Plated,1,4,PTH
FMAT,2
METRIC
; #@! TA.AperFunction,Plated,PTH,ViaDrill
T1C0.300
; #@! TA.AperFunction,Plated,PTH,ComponentDrill
T2C0.600
; #@! TA.AperFunction,Plated,PTH,ComponentDrill
T3C1.016
; #@! TA.AperFunction,Plated,PTH,ComponentDrill
T4C1.020
; #@! TA.AperFunction,Plated,PTH,ComponentDrill
T5C1.500
; #@! TA.AperFunction,Plated,PTH,ComponentDrill
T6C1.520
; #@! TA.AperFunction,Plated,PTH,ComponentDrill
T7C2.700
; #@! TA.AperFunction,Plated,PTH,ComponentDrill
T8C2.750
%
G90
G05
T1
X79.8Y-95.25
X80.6Y-95.25
X81.45Y-95.25
X82.2Y-56.65
X82.3Y-95.25
X83.0Y-55.85
X87.103Y-82.45
X87.3Y-99.1
X88.65Y-57.25
X89.2Y-81.9
X89.2Y-82.8
X89.2Y-97.9
X89.2Y-98.8
X89.2Y-103.65
X89.5Y-64.2
X89.5Y-65.4
X89.5Y-66.6
X89.5Y-67.7
X89.5Y-68.8
X89.5Y-69.8
X90.1Y-81.9
X90.1Y-82.8
X90.6Y-101.8
X90.8Y-64.2
X90.8Y-65.4
X90.8Y-66.6
X90.8Y-67.7
X90.8Y-68.8
X90.8Y-69.8
X91.1Y-81.9
X91.1Y-82.8
X91.5Y-78.35
X91.75Y-73.212
X92.0Y-81.9
X92.0Y-82.8
X92.0Y-83.7
X92.0Y-84.6
X92.1Y-64.2
X92.1Y-65.4
X92.1Y-66.6
X92.3Y-71.913
X92.6Y-96.6
X92.85Y-68.3
X92.95Y-75.812
X93.0Y-81.9
X93.0Y-82.8
X93.0Y-83.7
X93.0Y-84.6
X93.0Y-94.6
X93.3Y-64.2
X93.3Y-65.4
X93.3Y-66.6
X93.612Y-72.702
X93.617Y-71.359
X93.65Y-73.513
X93.9Y-81.9
X93.9Y-82.8
X93.9Y-83.7
X93.9Y-84.6
X94.1Y-101.0
X94.55Y-68.35
X94.6Y-94.6
X94.75Y-78.812
X94.9Y-81.9
X94.9Y-82.8
X94.9Y-83.7
X94.9Y-84.6
X94.9Y-103.9
X95.3Y-54.3
X95.7Y-56.701
X95.8Y-81.9
X95.8Y-82.8
X95.8Y-83.7
X95.8Y-84.6
X95.8Y-85.5
X95.8Y-86.4
X95.85Y-66.7
X95.9Y-104.0
X96.239Y-64.037
X96.25Y-68.3
X96.8Y-81.9
X96.8Y-82.8
X96.8Y-83.7
X96.8Y-84.6
X96.8Y-85.5
X96.8Y-86.4
X96.95Y-61.438
X96.95Y-87.15
X96.988Y-62.248
X97.107Y-89.293
X97.475Y-66.7
X97.5Y-58.05
X97.5Y-91.75
X97.65Y-59.137
X97.7Y-81.9
X97.7Y-82.8
X97.7Y-83.7
X97.7Y-84.6
X97.7Y-85.5
X98.078Y-94.525
X98.088Y-70.761
X98.1Y-99.925
X98.1Y-100.775
X98.524Y-90.05
X98.7Y-81.9
X98.7Y-82.8
X98.7Y-83.7
X98.7Y-84.6
X98.7Y-85.5
X98.75Y-62.938
X98.85Y-61.737
X99.1Y-66.688
X99.6Y-81.9
X99.6Y-82.8
X99.6Y-83.7
X99.6Y-84.6
X99.6Y-85.5
X99.6Y-102.3
X99.8Y-94.5
X100.272Y-90.65
X100.3Y-96.6
X100.372Y-89.45
X100.65Y-65.2
X101.1Y-56.8
X101.55Y-66.05
X101.55Y-93.675
X102.0Y-78.75
X102.1Y-57.3
X102.45Y-69.75
X103.172Y-92.075
X103.45Y-102.45
X103.475Y-62.25
X103.5Y-79.5
X103.7Y-72.4
X104.0Y-61.0
X104.3Y-96.8
X104.325Y-83.1
X104.4Y-55.2
X104.5Y-96.0
X104.637Y-100.252
X104.9Y-63.01
X105.5Y-62.65
X105.6Y-104.3
X106.2Y-59.7
X106.5Y-62.7
X106.5Y-75.2
X106.75Y-73.725
X106.75Y-78.725
X106.8Y-104.3
X106.95Y-100.35
X107.1Y-92.6
X107.1Y-96.3
X107.2Y-60.4
X107.4Y-65.675
X107.5Y-59.5
X107.925Y-62.2
X108.001Y-72.047
X108.2Y-58.1
X108.9Y-64.3
X109.1Y-100.6
X109.325Y-68.7
X109.5Y-59.1
X109.5Y-67.0
X109.6Y-65.4
X109.6Y-77.225
X109.7Y-56.5
X109.7Y-75.325
X110.2Y-62.8
X110.25Y-103.0
X110.275Y-61.8
X110.9Y-87.1
X111.4Y-57.7
X111.5Y-98.2
X111.9Y-60.6
X111.95Y-83.6
X112.5Y-98.2
X112.7Y-70.4
X113.1Y-62.425
X113.2Y-56.5
X113.2Y-57.3
X113.2Y-66.9
X113.2Y-67.6
X113.3Y-55.8
X113.3Y-87.6
X113.4Y-61.3
X113.4Y-65.3
X113.4Y-68.8
X113.4Y-76.2
X113.4Y-98.2
X113.6Y-93.85
X113.674Y-64.631
X113.8Y-68.0
X114.0Y-62.1
X114.007Y-69.241
X114.2Y-63.939
X114.3Y-66.5
X114.3Y-90.0
X114.3Y-98.1
X114.45Y-87.4
X114.5Y-68.5
X115.237Y-69.275
X115.3Y-98.2
X115.75Y-68.728
X116.2Y-98.2
X116.3Y-62.55
X116.678Y-58.281
X116.7Y-63.5
X117.2Y-98.2
X117.4Y-64.1
X117.4Y-73.3
X118.051Y-53.151
X118.2Y-98.2
X118.3Y-57.575
X118.7Y-73.4
X118.742Y-64.232
X118.976Y-72.3
X119.0Y-102.54
X119.396Y-63.4
X119.527Y-58.189
X119.632Y-65.918
X119.75Y-60.725
X119.8Y-96.1
X120.05Y-63.15
X120.307Y-66.593
X120.35Y-96.85
X120.4Y-56.0
X120.65Y-62.15
X120.729Y-62.971
X120.921Y-95.521
X121.072Y-96.872
X121.1Y-78.1
X121.5Y-87.0
X121.725Y-103.6
X121.925Y-61.9
X122.031Y-65.718
X122.2Y-80.3
X122.2Y-102.5
X122.7Y-60.0
X123.15Y-51.65
X123.2Y-56.0
X123.8Y-100.6
X123.8Y-101.7
X124.05Y-69.675
X124.1Y-57.95
X124.1Y-82.9
X124.1Y-99.9
X124.1Y-102.4
X124.25Y-59.3
X124.612Y-62.012
X124.9Y-87.1
X125.0Y-99.8
X125.0Y-102.5
X125.15Y-58.5
X125.185Y-68.191
X125.299Y-67.5
X125.299Y-68.881
X125.6Y-103.6
X125.9Y-100.1
X125.9Y-102.3
X126.0Y-77.225
X126.1Y-60.0
X126.279Y-65.871
X126.5Y-80.975
X126.5Y-83.0
X126.6Y-100.5
X126.6Y-101.8
X126.625Y-70.7
X126.775Y-66.85
X126.8Y-79.2
X126.86Y-83.6
X126.9Y-75.275
X127.0Y-84.3
X127.3Y-65.4
X127.4Y-100.5
X127.4Y-101.8
X127.475Y-61.4
X127.6Y-84.66
X127.825Y-65.927
X128.2Y-100.5
X128.2Y-101.8
X128.6Y-66.6
X128.8Y-64.85
X129.0Y-100.5
X129.0Y-101.8
X129.3Y-68.25
X129.6Y-76.2
X129.9Y-92.6
X129.925Y-56.59
X130.0Y-73.4
X130.2Y-69.95
X130.2Y-80.4
X131.4Y-60.19
X131.4Y-64.25
X131.6Y-88.8
X131.625Y-56.59
X131.7Y-72.05
X134.4Y-74.5
X134.4Y-84.9
X134.5Y-95.5
X135.2Y-64.85
X135.3Y-66.55
X135.5Y-77.1
X135.6Y-59.7
X136.0Y-87.7
X136.1Y-85.0
X136.15Y-74.45
X136.2Y-95.5
T3
X86.37Y-51.23
X86.37Y-53.77
X88.91Y-51.23
X88.91Y-53.77
X91.45Y-51.23
X91.45Y-53.77
X93.99Y-51.23
X93.99Y-53.77
X96.53Y-51.23
X96.53Y-53.77
X99.07Y-51.23
X99.07Y-53.77
X101.61Y-51.23
X101.61Y-53.77
X104.15Y-51.23
X104.15Y-53.77
X106.69Y-51.23
X106.69Y-53.77
X109.23Y-51.23
X109.23Y-53.77
X111.77Y-51.23
X111.77Y-53.77
X114.31Y-51.23
X114.31Y-53.77
X116.85Y-51.23
X116.85Y-53.77
X119.39Y-51.23
X119.39Y-53.77
X121.93Y-51.23
X121.93Y-53.77
X124.47Y-51.23
X124.47Y-53.77
X127.01Y-51.23
X127.01Y-53.77
X129.55Y-51.23
X129.55Y-53.77
X132.09Y-51.23
X132.09Y-53.77
X134.63Y-51.23
X134.63Y-53.77
T4
X82.07Y-57.94
X82.07Y-60.48
X82.07Y-63.02
X82.07Y-65.56
X82.07Y-68.1
X82.07Y-70.64
X82.07Y-73.18
X82.07Y-75.72
X82.07Y-78.26
X84.61Y-57.94
X84.61Y-60.48
X84.61Y-63.02
X84.61Y-65.56
X84.61Y-68.1
X84.61Y-70.64
X84.61Y-73.18
X84.61Y-75.72
X84.61Y-78.26
X87.15Y-57.94
X87.15Y-60.48
X87.15Y-63.02
X87.15Y-65.56
X87.15Y-68.1
X87.15Y-70.64
X87.15Y-73.18
X87.15Y-75.72
X87.15Y-78.26
T5
X127.9Y-98.5
X127.9Y-103.58
X130.44Y-101.04
X132.98Y-98.5
X132.98Y-103.58
T6
X139.0Y-58.61
X139.0Y-63.69
X139.0Y-69.2
X139.0Y-74.28
X139.0Y-79.81
X139.0Y-84.89
X139.0Y-90.41
X139.0Y-95.49
T7
X88.55Y-85.9
X88.55Y-93.1
T8
X81.5Y-52.5
X81.5Y-101.5
X139.5Y-52.5
X139.5Y-101.5
T2
G00X82.0Y-82.75
M15
G01X83.1Y-82.75
M16
G05
G00X82.0Y-96.25
M15
G01X83.1Y-96.25
M16
G05
G00X92.33Y-97.66
M15
G01X92.33Y-98.76
M16
G05
G00X92.33Y-101.99
M15
G01X92.33Y-102.79
M16
G05
G00X100.97Y-97.66
M15
G01X100.97Y-98.76
M16
G05
G00X100.97Y-101.99
M15
G01X100.97Y-102.79
M16
G05
M30
