%TF.GenerationSoftware,KiCad,Pcbnew,9.0.2+dfsg-1*%
%TF.CreationDate,2025-11-29T03:23:51-08:00*%
%TF.ProjectId,rc-plane,72632d70-6c61-46e6-952e-6b696361645f,rev?*%
%TF.SameCoordinates,Original*%
%TF.FileFunction,Legend,Top*%
%TF.FilePolarity,Positive*%
%FSLAX46Y46*%
G04 Gerber Fmt 4.6, Leading zero omitted, Abs format (unit mm)*
G04 Created by KiCad (PCBNEW 9.0.2+dfsg-1) date 2025-11-29 03:23:51*
%MOMM*%
%LPD*%
G01*
G04 APERTURE LIST*
%ADD10C,0.125000*%
%ADD11C,0.175000*%
%ADD12C,0.200000*%
%ADD13C,0.150000*%
%ADD14C,0.120000*%
%ADD15C,0.400000*%
%ADD16C,0.000000*%
G04 APERTURE END LIST*
D10*
X99325093Y-95520071D02*
X99325093Y-96005785D01*
X99325093Y-96005785D02*
X99353664Y-96062928D01*
X99353664Y-96062928D02*
X99382236Y-96091500D01*
X99382236Y-96091500D02*
X99439378Y-96120071D01*
X99439378Y-96120071D02*
X99553664Y-96120071D01*
X99553664Y-96120071D02*
X99610807Y-96091500D01*
X99610807Y-96091500D02*
X99639378Y-96062928D01*
X99639378Y-96062928D02*
X99667950Y-96005785D01*
X99667950Y-96005785D02*
X99667950Y-95520071D01*
X99925092Y-96091500D02*
X100010807Y-96120071D01*
X100010807Y-96120071D02*
X100153664Y-96120071D01*
X100153664Y-96120071D02*
X100210807Y-96091500D01*
X100210807Y-96091500D02*
X100239378Y-96062928D01*
X100239378Y-96062928D02*
X100267949Y-96005785D01*
X100267949Y-96005785D02*
X100267949Y-95948642D01*
X100267949Y-95948642D02*
X100239378Y-95891500D01*
X100239378Y-95891500D02*
X100210807Y-95862928D01*
X100210807Y-95862928D02*
X100153664Y-95834357D01*
X100153664Y-95834357D02*
X100039378Y-95805785D01*
X100039378Y-95805785D02*
X99982235Y-95777214D01*
X99982235Y-95777214D02*
X99953664Y-95748642D01*
X99953664Y-95748642D02*
X99925092Y-95691500D01*
X99925092Y-95691500D02*
X99925092Y-95634357D01*
X99925092Y-95634357D02*
X99953664Y-95577214D01*
X99953664Y-95577214D02*
X99982235Y-95548642D01*
X99982235Y-95548642D02*
X100039378Y-95520071D01*
X100039378Y-95520071D02*
X100182235Y-95520071D01*
X100182235Y-95520071D02*
X100267949Y-95548642D01*
X100725093Y-95805785D02*
X100810807Y-95834357D01*
X100810807Y-95834357D02*
X100839378Y-95862928D01*
X100839378Y-95862928D02*
X100867950Y-95920071D01*
X100867950Y-95920071D02*
X100867950Y-96005785D01*
X100867950Y-96005785D02*
X100839378Y-96062928D01*
X100839378Y-96062928D02*
X100810807Y-96091500D01*
X100810807Y-96091500D02*
X100753664Y-96120071D01*
X100753664Y-96120071D02*
X100525093Y-96120071D01*
X100525093Y-96120071D02*
X100525093Y-95520071D01*
X100525093Y-95520071D02*
X100725093Y-95520071D01*
X100725093Y-95520071D02*
X100782236Y-95548642D01*
X100782236Y-95548642D02*
X100810807Y-95577214D01*
X100810807Y-95577214D02*
X100839378Y-95634357D01*
X100839378Y-95634357D02*
X100839378Y-95691500D01*
X100839378Y-95691500D02*
X100810807Y-95748642D01*
X100810807Y-95748642D02*
X100782236Y-95777214D01*
X100782236Y-95777214D02*
X100725093Y-95805785D01*
X100725093Y-95805785D02*
X100525093Y-95805785D01*
X101925093Y-96062928D02*
X101896521Y-96091500D01*
X101896521Y-96091500D02*
X101810807Y-96120071D01*
X101810807Y-96120071D02*
X101753664Y-96120071D01*
X101753664Y-96120071D02*
X101667950Y-96091500D01*
X101667950Y-96091500D02*
X101610807Y-96034357D01*
X101610807Y-96034357D02*
X101582236Y-95977214D01*
X101582236Y-95977214D02*
X101553664Y-95862928D01*
X101553664Y-95862928D02*
X101553664Y-95777214D01*
X101553664Y-95777214D02*
X101582236Y-95662928D01*
X101582236Y-95662928D02*
X101610807Y-95605785D01*
X101610807Y-95605785D02*
X101667950Y-95548642D01*
X101667950Y-95548642D02*
X101753664Y-95520071D01*
X101753664Y-95520071D02*
X101810807Y-95520071D01*
X101810807Y-95520071D02*
X101896521Y-95548642D01*
X101896521Y-95548642D02*
X101925093Y-95577214D01*
X91825093Y-81805785D02*
X91910807Y-81834357D01*
X91910807Y-81834357D02*
X91939378Y-81862928D01*
X91939378Y-81862928D02*
X91967950Y-81920071D01*
X91967950Y-81920071D02*
X91967950Y-82005785D01*
X91967950Y-82005785D02*
X91939378Y-82062928D01*
X91939378Y-82062928D02*
X91910807Y-82091500D01*
X91910807Y-82091500D02*
X91853664Y-82120071D01*
X91853664Y-82120071D02*
X91625093Y-82120071D01*
X91625093Y-82120071D02*
X91625093Y-81520071D01*
X91625093Y-81520071D02*
X91825093Y-81520071D01*
X91825093Y-81520071D02*
X91882236Y-81548642D01*
X91882236Y-81548642D02*
X91910807Y-81577214D01*
X91910807Y-81577214D02*
X91939378Y-81634357D01*
X91939378Y-81634357D02*
X91939378Y-81691500D01*
X91939378Y-81691500D02*
X91910807Y-81748642D01*
X91910807Y-81748642D02*
X91882236Y-81777214D01*
X91882236Y-81777214D02*
X91825093Y-81805785D01*
X91825093Y-81805785D02*
X91625093Y-81805785D01*
X92196521Y-81948642D02*
X92482236Y-81948642D01*
X92139378Y-82120071D02*
X92339378Y-81520071D01*
X92339378Y-81520071D02*
X92539378Y-82120071D01*
X92653664Y-81520071D02*
X92996522Y-81520071D01*
X92825093Y-82120071D02*
X92825093Y-81520071D01*
X93110807Y-81520071D02*
X93453665Y-81520071D01*
X93282236Y-82120071D02*
X93282236Y-81520071D01*
X93653665Y-81805785D02*
X93853665Y-81805785D01*
X93939379Y-82120071D02*
X93653665Y-82120071D01*
X93653665Y-82120071D02*
X93653665Y-81520071D01*
X93653665Y-81520071D02*
X93939379Y-81520071D01*
X94539379Y-82120071D02*
X94339379Y-81834357D01*
X94196522Y-82120071D02*
X94196522Y-81520071D01*
X94196522Y-81520071D02*
X94425093Y-81520071D01*
X94425093Y-81520071D02*
X94482236Y-81548642D01*
X94482236Y-81548642D02*
X94510807Y-81577214D01*
X94510807Y-81577214D02*
X94539379Y-81634357D01*
X94539379Y-81634357D02*
X94539379Y-81720071D01*
X94539379Y-81720071D02*
X94510807Y-81777214D01*
X94510807Y-81777214D02*
X94482236Y-81805785D01*
X94482236Y-81805785D02*
X94425093Y-81834357D01*
X94425093Y-81834357D02*
X94196522Y-81834357D01*
X94910807Y-81834357D02*
X94910807Y-82120071D01*
X94710807Y-81520071D02*
X94910807Y-81834357D01*
X94910807Y-81834357D02*
X95110807Y-81520071D01*
X102325093Y-104091500D02*
X102782236Y-104091500D01*
X102553664Y-104320071D02*
X102553664Y-103862928D01*
X134148642Y-62203478D02*
X134148642Y-61917764D01*
X134320071Y-62260621D02*
X133720071Y-62060621D01*
X133720071Y-62060621D02*
X134320071Y-61860621D01*
X134320071Y-61317763D02*
X134034357Y-61517763D01*
X134320071Y-61660620D02*
X133720071Y-61660620D01*
X133720071Y-61660620D02*
X133720071Y-61432049D01*
X133720071Y-61432049D02*
X133748642Y-61374906D01*
X133748642Y-61374906D02*
X133777214Y-61346335D01*
X133777214Y-61346335D02*
X133834357Y-61317763D01*
X133834357Y-61317763D02*
X133920071Y-61317763D01*
X133920071Y-61317763D02*
X133977214Y-61346335D01*
X133977214Y-61346335D02*
X134005785Y-61374906D01*
X134005785Y-61374906D02*
X134034357Y-61432049D01*
X134034357Y-61432049D02*
X134034357Y-61660620D01*
X134320071Y-61060620D02*
X133720071Y-61060620D01*
X133720071Y-61060620D02*
X134148642Y-60860620D01*
X134148642Y-60860620D02*
X133720071Y-60660620D01*
X133720071Y-60660620D02*
X134320071Y-60660620D01*
D11*
X114981797Y-59697389D02*
X114981797Y-58997389D01*
X114981797Y-58997389D02*
X115248464Y-58997389D01*
X115248464Y-58997389D02*
X115315131Y-59030722D01*
X115315131Y-59030722D02*
X115348464Y-59064056D01*
X115348464Y-59064056D02*
X115381797Y-59130722D01*
X115381797Y-59130722D02*
X115381797Y-59230722D01*
X115381797Y-59230722D02*
X115348464Y-59297389D01*
X115348464Y-59297389D02*
X115315131Y-59330722D01*
X115315131Y-59330722D02*
X115248464Y-59364056D01*
X115248464Y-59364056D02*
X114981797Y-59364056D01*
X115681797Y-59697389D02*
X115681797Y-59230722D01*
X115681797Y-58997389D02*
X115648464Y-59030722D01*
X115648464Y-59030722D02*
X115681797Y-59064056D01*
X115681797Y-59064056D02*
X115715131Y-59030722D01*
X115715131Y-59030722D02*
X115681797Y-58997389D01*
X115681797Y-58997389D02*
X115681797Y-59064056D01*
X116781797Y-59330722D02*
X116548463Y-59330722D01*
X116548463Y-59697389D02*
X116548463Y-58997389D01*
X116548463Y-58997389D02*
X116881797Y-58997389D01*
X117248463Y-59697389D02*
X117181797Y-59664056D01*
X117181797Y-59664056D02*
X117148463Y-59597389D01*
X117148463Y-59597389D02*
X117148463Y-58997389D01*
X117515130Y-59697389D02*
X117515130Y-59230722D01*
X117515130Y-58997389D02*
X117481797Y-59030722D01*
X117481797Y-59030722D02*
X117515130Y-59064056D01*
X117515130Y-59064056D02*
X117548464Y-59030722D01*
X117548464Y-59030722D02*
X117515130Y-58997389D01*
X117515130Y-58997389D02*
X117515130Y-59064056D01*
X118148463Y-59230722D02*
X118148463Y-59797389D01*
X118148463Y-59797389D02*
X118115130Y-59864056D01*
X118115130Y-59864056D02*
X118081797Y-59897389D01*
X118081797Y-59897389D02*
X118015130Y-59930722D01*
X118015130Y-59930722D02*
X117915130Y-59930722D01*
X117915130Y-59930722D02*
X117848463Y-59897389D01*
X118148463Y-59664056D02*
X118081797Y-59697389D01*
X118081797Y-59697389D02*
X117948463Y-59697389D01*
X117948463Y-59697389D02*
X117881797Y-59664056D01*
X117881797Y-59664056D02*
X117848463Y-59630722D01*
X117848463Y-59630722D02*
X117815130Y-59564056D01*
X117815130Y-59564056D02*
X117815130Y-59364056D01*
X117815130Y-59364056D02*
X117848463Y-59297389D01*
X117848463Y-59297389D02*
X117881797Y-59264056D01*
X117881797Y-59264056D02*
X117948463Y-59230722D01*
X117948463Y-59230722D02*
X118081797Y-59230722D01*
X118081797Y-59230722D02*
X118148463Y-59264056D01*
X118481796Y-59697389D02*
X118481796Y-58997389D01*
X118781796Y-59697389D02*
X118781796Y-59330722D01*
X118781796Y-59330722D02*
X118748463Y-59264056D01*
X118748463Y-59264056D02*
X118681796Y-59230722D01*
X118681796Y-59230722D02*
X118581796Y-59230722D01*
X118581796Y-59230722D02*
X118515130Y-59264056D01*
X118515130Y-59264056D02*
X118481796Y-59297389D01*
X119015129Y-59230722D02*
X119281796Y-59230722D01*
X119115129Y-58997389D02*
X119115129Y-59597389D01*
X119115129Y-59597389D02*
X119148463Y-59664056D01*
X119148463Y-59664056D02*
X119215129Y-59697389D01*
X119215129Y-59697389D02*
X119281796Y-59697389D01*
X120015129Y-59664056D02*
X120115129Y-59697389D01*
X120115129Y-59697389D02*
X120281796Y-59697389D01*
X120281796Y-59697389D02*
X120348462Y-59664056D01*
X120348462Y-59664056D02*
X120381796Y-59630722D01*
X120381796Y-59630722D02*
X120415129Y-59564056D01*
X120415129Y-59564056D02*
X120415129Y-59497389D01*
X120415129Y-59497389D02*
X120381796Y-59430722D01*
X120381796Y-59430722D02*
X120348462Y-59397389D01*
X120348462Y-59397389D02*
X120281796Y-59364056D01*
X120281796Y-59364056D02*
X120148462Y-59330722D01*
X120148462Y-59330722D02*
X120081796Y-59297389D01*
X120081796Y-59297389D02*
X120048462Y-59264056D01*
X120048462Y-59264056D02*
X120015129Y-59197389D01*
X120015129Y-59197389D02*
X120015129Y-59130722D01*
X120015129Y-59130722D02*
X120048462Y-59064056D01*
X120048462Y-59064056D02*
X120081796Y-59030722D01*
X120081796Y-59030722D02*
X120148462Y-58997389D01*
X120148462Y-58997389D02*
X120315129Y-58997389D01*
X120315129Y-58997389D02*
X120415129Y-59030722D01*
X120981796Y-59664056D02*
X120915129Y-59697389D01*
X120915129Y-59697389D02*
X120781796Y-59697389D01*
X120781796Y-59697389D02*
X120715129Y-59664056D01*
X120715129Y-59664056D02*
X120681796Y-59597389D01*
X120681796Y-59597389D02*
X120681796Y-59330722D01*
X120681796Y-59330722D02*
X120715129Y-59264056D01*
X120715129Y-59264056D02*
X120781796Y-59230722D01*
X120781796Y-59230722D02*
X120915129Y-59230722D01*
X120915129Y-59230722D02*
X120981796Y-59264056D01*
X120981796Y-59264056D02*
X121015129Y-59330722D01*
X121015129Y-59330722D02*
X121015129Y-59397389D01*
X121015129Y-59397389D02*
X120681796Y-59464056D01*
X121315129Y-59230722D02*
X121315129Y-59697389D01*
X121315129Y-59297389D02*
X121348463Y-59264056D01*
X121348463Y-59264056D02*
X121415129Y-59230722D01*
X121415129Y-59230722D02*
X121515129Y-59230722D01*
X121515129Y-59230722D02*
X121581796Y-59264056D01*
X121581796Y-59264056D02*
X121615129Y-59330722D01*
X121615129Y-59330722D02*
X121615129Y-59697389D01*
X121915129Y-59664056D02*
X121981796Y-59697389D01*
X121981796Y-59697389D02*
X122115129Y-59697389D01*
X122115129Y-59697389D02*
X122181796Y-59664056D01*
X122181796Y-59664056D02*
X122215129Y-59597389D01*
X122215129Y-59597389D02*
X122215129Y-59564056D01*
X122215129Y-59564056D02*
X122181796Y-59497389D01*
X122181796Y-59497389D02*
X122115129Y-59464056D01*
X122115129Y-59464056D02*
X122015129Y-59464056D01*
X122015129Y-59464056D02*
X121948462Y-59430722D01*
X121948462Y-59430722D02*
X121915129Y-59364056D01*
X121915129Y-59364056D02*
X121915129Y-59330722D01*
X121915129Y-59330722D02*
X121948462Y-59264056D01*
X121948462Y-59264056D02*
X122015129Y-59230722D01*
X122015129Y-59230722D02*
X122115129Y-59230722D01*
X122115129Y-59230722D02*
X122181796Y-59264056D01*
X122615129Y-59697389D02*
X122548463Y-59664056D01*
X122548463Y-59664056D02*
X122515129Y-59630722D01*
X122515129Y-59630722D02*
X122481796Y-59564056D01*
X122481796Y-59564056D02*
X122481796Y-59364056D01*
X122481796Y-59364056D02*
X122515129Y-59297389D01*
X122515129Y-59297389D02*
X122548463Y-59264056D01*
X122548463Y-59264056D02*
X122615129Y-59230722D01*
X122615129Y-59230722D02*
X122715129Y-59230722D01*
X122715129Y-59230722D02*
X122781796Y-59264056D01*
X122781796Y-59264056D02*
X122815129Y-59297389D01*
X122815129Y-59297389D02*
X122848463Y-59364056D01*
X122848463Y-59364056D02*
X122848463Y-59564056D01*
X122848463Y-59564056D02*
X122815129Y-59630722D01*
X122815129Y-59630722D02*
X122781796Y-59664056D01*
X122781796Y-59664056D02*
X122715129Y-59697389D01*
X122715129Y-59697389D02*
X122615129Y-59697389D01*
X123148462Y-59697389D02*
X123148462Y-59230722D01*
X123148462Y-59364056D02*
X123181796Y-59297389D01*
X123181796Y-59297389D02*
X123215129Y-59264056D01*
X123215129Y-59264056D02*
X123281796Y-59230722D01*
X123281796Y-59230722D02*
X123348462Y-59230722D01*
X124115128Y-59697389D02*
X124115128Y-58997389D01*
X124115128Y-59330722D02*
X124515128Y-59330722D01*
X124515128Y-59697389D02*
X124515128Y-58997389D01*
X125148461Y-59697389D02*
X125148461Y-59330722D01*
X125148461Y-59330722D02*
X125115128Y-59264056D01*
X125115128Y-59264056D02*
X125048461Y-59230722D01*
X125048461Y-59230722D02*
X124915128Y-59230722D01*
X124915128Y-59230722D02*
X124848461Y-59264056D01*
X125148461Y-59664056D02*
X125081795Y-59697389D01*
X125081795Y-59697389D02*
X124915128Y-59697389D01*
X124915128Y-59697389D02*
X124848461Y-59664056D01*
X124848461Y-59664056D02*
X124815128Y-59597389D01*
X124815128Y-59597389D02*
X124815128Y-59530722D01*
X124815128Y-59530722D02*
X124848461Y-59464056D01*
X124848461Y-59464056D02*
X124915128Y-59430722D01*
X124915128Y-59430722D02*
X125081795Y-59430722D01*
X125081795Y-59430722D02*
X125148461Y-59397389D01*
X125381794Y-59230722D02*
X125648461Y-59230722D01*
X125481794Y-58997389D02*
X125481794Y-59597389D01*
X125481794Y-59597389D02*
X125515128Y-59664056D01*
X125515128Y-59664056D02*
X125581794Y-59697389D01*
X125581794Y-59697389D02*
X125648461Y-59697389D01*
X115215131Y-61584644D02*
X115315131Y-61617978D01*
X115315131Y-61617978D02*
X115348464Y-61651311D01*
X115348464Y-61651311D02*
X115381797Y-61717978D01*
X115381797Y-61717978D02*
X115381797Y-61817978D01*
X115381797Y-61817978D02*
X115348464Y-61884644D01*
X115348464Y-61884644D02*
X115315131Y-61917978D01*
X115315131Y-61917978D02*
X115248464Y-61951311D01*
X115248464Y-61951311D02*
X114981797Y-61951311D01*
X114981797Y-61951311D02*
X114981797Y-61251311D01*
X114981797Y-61251311D02*
X115215131Y-61251311D01*
X115215131Y-61251311D02*
X115281797Y-61284644D01*
X115281797Y-61284644D02*
X115315131Y-61317978D01*
X115315131Y-61317978D02*
X115348464Y-61384644D01*
X115348464Y-61384644D02*
X115348464Y-61451311D01*
X115348464Y-61451311D02*
X115315131Y-61517978D01*
X115315131Y-61517978D02*
X115281797Y-61551311D01*
X115281797Y-61551311D02*
X115215131Y-61584644D01*
X115215131Y-61584644D02*
X114981797Y-61584644D01*
X115615131Y-61484644D02*
X115781797Y-61951311D01*
X115948464Y-61484644D02*
X115781797Y-61951311D01*
X115781797Y-61951311D02*
X115715131Y-62117978D01*
X115715131Y-62117978D02*
X115681797Y-62151311D01*
X115681797Y-62151311D02*
X115615131Y-62184644D01*
X116215130Y-61884644D02*
X116248464Y-61917978D01*
X116248464Y-61917978D02*
X116215130Y-61951311D01*
X116215130Y-61951311D02*
X116181797Y-61917978D01*
X116181797Y-61917978D02*
X116215130Y-61884644D01*
X116215130Y-61884644D02*
X116215130Y-61951311D01*
X116215130Y-61517978D02*
X116248464Y-61551311D01*
X116248464Y-61551311D02*
X116215130Y-61584644D01*
X116215130Y-61584644D02*
X116181797Y-61551311D01*
X116181797Y-61551311D02*
X116215130Y-61517978D01*
X116215130Y-61517978D02*
X116215130Y-61584644D01*
X120815130Y-61951311D02*
X120581797Y-61617978D01*
X120415130Y-61951311D02*
X120415130Y-61251311D01*
X120415130Y-61251311D02*
X120681797Y-61251311D01*
X120681797Y-61251311D02*
X120748464Y-61284644D01*
X120748464Y-61284644D02*
X120781797Y-61317978D01*
X120781797Y-61317978D02*
X120815130Y-61384644D01*
X120815130Y-61384644D02*
X120815130Y-61484644D01*
X120815130Y-61484644D02*
X120781797Y-61551311D01*
X120781797Y-61551311D02*
X120748464Y-61584644D01*
X120748464Y-61584644D02*
X120681797Y-61617978D01*
X120681797Y-61617978D02*
X120415130Y-61617978D01*
X121215130Y-61951311D02*
X121148464Y-61917978D01*
X121148464Y-61917978D02*
X121115130Y-61884644D01*
X121115130Y-61884644D02*
X121081797Y-61817978D01*
X121081797Y-61817978D02*
X121081797Y-61617978D01*
X121081797Y-61617978D02*
X121115130Y-61551311D01*
X121115130Y-61551311D02*
X121148464Y-61517978D01*
X121148464Y-61517978D02*
X121215130Y-61484644D01*
X121215130Y-61484644D02*
X121315130Y-61484644D01*
X121315130Y-61484644D02*
X121381797Y-61517978D01*
X121381797Y-61517978D02*
X121415130Y-61551311D01*
X121415130Y-61551311D02*
X121448464Y-61617978D01*
X121448464Y-61617978D02*
X121448464Y-61817978D01*
X121448464Y-61817978D02*
X121415130Y-61884644D01*
X121415130Y-61884644D02*
X121381797Y-61917978D01*
X121381797Y-61917978D02*
X121315130Y-61951311D01*
X121315130Y-61951311D02*
X121215130Y-61951311D01*
X121748463Y-61951311D02*
X121748463Y-61251311D01*
X121748463Y-61517978D02*
X121815130Y-61484644D01*
X121815130Y-61484644D02*
X121948463Y-61484644D01*
X121948463Y-61484644D02*
X122015130Y-61517978D01*
X122015130Y-61517978D02*
X122048463Y-61551311D01*
X122048463Y-61551311D02*
X122081797Y-61617978D01*
X122081797Y-61617978D02*
X122081797Y-61817978D01*
X122081797Y-61817978D02*
X122048463Y-61884644D01*
X122048463Y-61884644D02*
X122015130Y-61917978D01*
X122015130Y-61917978D02*
X121948463Y-61951311D01*
X121948463Y-61951311D02*
X121815130Y-61951311D01*
X121815130Y-61951311D02*
X121748463Y-61917978D01*
X122648463Y-61917978D02*
X122581796Y-61951311D01*
X122581796Y-61951311D02*
X122448463Y-61951311D01*
X122448463Y-61951311D02*
X122381796Y-61917978D01*
X122381796Y-61917978D02*
X122348463Y-61851311D01*
X122348463Y-61851311D02*
X122348463Y-61584644D01*
X122348463Y-61584644D02*
X122381796Y-61517978D01*
X122381796Y-61517978D02*
X122448463Y-61484644D01*
X122448463Y-61484644D02*
X122581796Y-61484644D01*
X122581796Y-61484644D02*
X122648463Y-61517978D01*
X122648463Y-61517978D02*
X122681796Y-61584644D01*
X122681796Y-61584644D02*
X122681796Y-61651311D01*
X122681796Y-61651311D02*
X122348463Y-61717978D01*
X122981796Y-61951311D02*
X122981796Y-61484644D01*
X122981796Y-61617978D02*
X123015130Y-61551311D01*
X123015130Y-61551311D02*
X123048463Y-61517978D01*
X123048463Y-61517978D02*
X123115130Y-61484644D01*
X123115130Y-61484644D02*
X123181796Y-61484644D01*
X123315129Y-61484644D02*
X123581796Y-61484644D01*
X123415129Y-61251311D02*
X123415129Y-61851311D01*
X123415129Y-61851311D02*
X123448463Y-61917978D01*
X123448463Y-61917978D02*
X123515129Y-61951311D01*
X123515129Y-61951311D02*
X123581796Y-61951311D01*
X124281796Y-61251311D02*
X124448462Y-61951311D01*
X124448462Y-61951311D02*
X124581796Y-61451311D01*
X124581796Y-61451311D02*
X124715129Y-61951311D01*
X124715129Y-61951311D02*
X124881796Y-61251311D01*
X125248462Y-61951311D02*
X125181796Y-61917978D01*
X125181796Y-61917978D02*
X125148462Y-61884644D01*
X125148462Y-61884644D02*
X125115129Y-61817978D01*
X125115129Y-61817978D02*
X125115129Y-61617978D01*
X125115129Y-61617978D02*
X125148462Y-61551311D01*
X125148462Y-61551311D02*
X125181796Y-61517978D01*
X125181796Y-61517978D02*
X125248462Y-61484644D01*
X125248462Y-61484644D02*
X125348462Y-61484644D01*
X125348462Y-61484644D02*
X125415129Y-61517978D01*
X125415129Y-61517978D02*
X125448462Y-61551311D01*
X125448462Y-61551311D02*
X125481796Y-61617978D01*
X125481796Y-61617978D02*
X125481796Y-61817978D01*
X125481796Y-61817978D02*
X125448462Y-61884644D01*
X125448462Y-61884644D02*
X125415129Y-61917978D01*
X125415129Y-61917978D02*
X125348462Y-61951311D01*
X125348462Y-61951311D02*
X125248462Y-61951311D01*
X125881795Y-61951311D02*
X125815129Y-61917978D01*
X125815129Y-61917978D02*
X125781795Y-61884644D01*
X125781795Y-61884644D02*
X125748462Y-61817978D01*
X125748462Y-61817978D02*
X125748462Y-61617978D01*
X125748462Y-61617978D02*
X125781795Y-61551311D01*
X125781795Y-61551311D02*
X125815129Y-61517978D01*
X125815129Y-61517978D02*
X125881795Y-61484644D01*
X125881795Y-61484644D02*
X125981795Y-61484644D01*
X125981795Y-61484644D02*
X126048462Y-61517978D01*
X126048462Y-61517978D02*
X126081795Y-61551311D01*
X126081795Y-61551311D02*
X126115129Y-61617978D01*
X126115129Y-61617978D02*
X126115129Y-61817978D01*
X126115129Y-61817978D02*
X126081795Y-61884644D01*
X126081795Y-61884644D02*
X126048462Y-61917978D01*
X126048462Y-61917978D02*
X125981795Y-61951311D01*
X125981795Y-61951311D02*
X125881795Y-61951311D01*
X120548464Y-62744939D02*
X120548464Y-63078272D01*
X120315130Y-62378272D02*
X120548464Y-62744939D01*
X120548464Y-62744939D02*
X120781797Y-62378272D01*
X121115130Y-63078272D02*
X121048464Y-63044939D01*
X121048464Y-63044939D02*
X121015130Y-63011605D01*
X121015130Y-63011605D02*
X120981797Y-62944939D01*
X120981797Y-62944939D02*
X120981797Y-62744939D01*
X120981797Y-62744939D02*
X121015130Y-62678272D01*
X121015130Y-62678272D02*
X121048464Y-62644939D01*
X121048464Y-62644939D02*
X121115130Y-62611605D01*
X121115130Y-62611605D02*
X121215130Y-62611605D01*
X121215130Y-62611605D02*
X121281797Y-62644939D01*
X121281797Y-62644939D02*
X121315130Y-62678272D01*
X121315130Y-62678272D02*
X121348464Y-62744939D01*
X121348464Y-62744939D02*
X121348464Y-62944939D01*
X121348464Y-62944939D02*
X121315130Y-63011605D01*
X121315130Y-63011605D02*
X121281797Y-63044939D01*
X121281797Y-63044939D02*
X121215130Y-63078272D01*
X121215130Y-63078272D02*
X121115130Y-63078272D01*
X121948463Y-62611605D02*
X121948463Y-63078272D01*
X121648463Y-62611605D02*
X121648463Y-62978272D01*
X121648463Y-62978272D02*
X121681797Y-63044939D01*
X121681797Y-63044939D02*
X121748463Y-63078272D01*
X121748463Y-63078272D02*
X121848463Y-63078272D01*
X121848463Y-63078272D02*
X121915130Y-63044939D01*
X121915130Y-63044939D02*
X121948463Y-63011605D01*
X122281796Y-62611605D02*
X122281796Y-63078272D01*
X122281796Y-62678272D02*
X122315130Y-62644939D01*
X122315130Y-62644939D02*
X122381796Y-62611605D01*
X122381796Y-62611605D02*
X122481796Y-62611605D01*
X122481796Y-62611605D02*
X122548463Y-62644939D01*
X122548463Y-62644939D02*
X122581796Y-62711605D01*
X122581796Y-62711605D02*
X122581796Y-63078272D01*
X123215129Y-62611605D02*
X123215129Y-63178272D01*
X123215129Y-63178272D02*
X123181796Y-63244939D01*
X123181796Y-63244939D02*
X123148463Y-63278272D01*
X123148463Y-63278272D02*
X123081796Y-63311605D01*
X123081796Y-63311605D02*
X122981796Y-63311605D01*
X122981796Y-63311605D02*
X122915129Y-63278272D01*
X123215129Y-63044939D02*
X123148463Y-63078272D01*
X123148463Y-63078272D02*
X123015129Y-63078272D01*
X123015129Y-63078272D02*
X122948463Y-63044939D01*
X122948463Y-63044939D02*
X122915129Y-63011605D01*
X122915129Y-63011605D02*
X122881796Y-62944939D01*
X122881796Y-62944939D02*
X122881796Y-62744939D01*
X122881796Y-62744939D02*
X122915129Y-62678272D01*
X122915129Y-62678272D02*
X122948463Y-62644939D01*
X122948463Y-62644939D02*
X123015129Y-62611605D01*
X123015129Y-62611605D02*
X123148463Y-62611605D01*
X123148463Y-62611605D02*
X123215129Y-62644939D01*
X123481796Y-62378272D02*
X123648462Y-63078272D01*
X123648462Y-63078272D02*
X123781796Y-62578272D01*
X123781796Y-62578272D02*
X123915129Y-63078272D01*
X123915129Y-63078272D02*
X124081796Y-62378272D01*
X124448462Y-63078272D02*
X124381796Y-63044939D01*
X124381796Y-63044939D02*
X124348462Y-63011605D01*
X124348462Y-63011605D02*
X124315129Y-62944939D01*
X124315129Y-62944939D02*
X124315129Y-62744939D01*
X124315129Y-62744939D02*
X124348462Y-62678272D01*
X124348462Y-62678272D02*
X124381796Y-62644939D01*
X124381796Y-62644939D02*
X124448462Y-62611605D01*
X124448462Y-62611605D02*
X124548462Y-62611605D01*
X124548462Y-62611605D02*
X124615129Y-62644939D01*
X124615129Y-62644939D02*
X124648462Y-62678272D01*
X124648462Y-62678272D02*
X124681796Y-62744939D01*
X124681796Y-62744939D02*
X124681796Y-62944939D01*
X124681796Y-62944939D02*
X124648462Y-63011605D01*
X124648462Y-63011605D02*
X124615129Y-63044939D01*
X124615129Y-63044939D02*
X124548462Y-63078272D01*
X124548462Y-63078272D02*
X124448462Y-63078272D01*
X125081795Y-63078272D02*
X125015129Y-63044939D01*
X125015129Y-63044939D02*
X124981795Y-63011605D01*
X124981795Y-63011605D02*
X124948462Y-62944939D01*
X124948462Y-62944939D02*
X124948462Y-62744939D01*
X124948462Y-62744939D02*
X124981795Y-62678272D01*
X124981795Y-62678272D02*
X125015129Y-62644939D01*
X125015129Y-62644939D02*
X125081795Y-62611605D01*
X125081795Y-62611605D02*
X125181795Y-62611605D01*
X125181795Y-62611605D02*
X125248462Y-62644939D01*
X125248462Y-62644939D02*
X125281795Y-62678272D01*
X125281795Y-62678272D02*
X125315129Y-62744939D01*
X125315129Y-62744939D02*
X125315129Y-62944939D01*
X125315129Y-62944939D02*
X125281795Y-63011605D01*
X125281795Y-63011605D02*
X125248462Y-63044939D01*
X125248462Y-63044939D02*
X125181795Y-63078272D01*
X125181795Y-63078272D02*
X125081795Y-63078272D01*
X126548461Y-63011605D02*
X126515128Y-63044939D01*
X126515128Y-63044939D02*
X126415128Y-63078272D01*
X126415128Y-63078272D02*
X126348461Y-63078272D01*
X126348461Y-63078272D02*
X126248461Y-63044939D01*
X126248461Y-63044939D02*
X126181795Y-62978272D01*
X126181795Y-62978272D02*
X126148461Y-62911605D01*
X126148461Y-62911605D02*
X126115128Y-62778272D01*
X126115128Y-62778272D02*
X126115128Y-62678272D01*
X126115128Y-62678272D02*
X126148461Y-62544939D01*
X126148461Y-62544939D02*
X126181795Y-62478272D01*
X126181795Y-62478272D02*
X126248461Y-62411605D01*
X126248461Y-62411605D02*
X126348461Y-62378272D01*
X126348461Y-62378272D02*
X126415128Y-62378272D01*
X126415128Y-62378272D02*
X126515128Y-62411605D01*
X126515128Y-62411605D02*
X126548461Y-62444939D01*
X126848461Y-63078272D02*
X126848461Y-62378272D01*
X127148461Y-63078272D02*
X127148461Y-62711605D01*
X127148461Y-62711605D02*
X127115128Y-62644939D01*
X127115128Y-62644939D02*
X127048461Y-62611605D01*
X127048461Y-62611605D02*
X126948461Y-62611605D01*
X126948461Y-62611605D02*
X126881795Y-62644939D01*
X126881795Y-62644939D02*
X126848461Y-62678272D01*
X127781794Y-63078272D02*
X127781794Y-62711605D01*
X127781794Y-62711605D02*
X127748461Y-62644939D01*
X127748461Y-62644939D02*
X127681794Y-62611605D01*
X127681794Y-62611605D02*
X127548461Y-62611605D01*
X127548461Y-62611605D02*
X127481794Y-62644939D01*
X127781794Y-63044939D02*
X127715128Y-63078272D01*
X127715128Y-63078272D02*
X127548461Y-63078272D01*
X127548461Y-63078272D02*
X127481794Y-63044939D01*
X127481794Y-63044939D02*
X127448461Y-62978272D01*
X127448461Y-62978272D02*
X127448461Y-62911605D01*
X127448461Y-62911605D02*
X127481794Y-62844939D01*
X127481794Y-62844939D02*
X127548461Y-62811605D01*
X127548461Y-62811605D02*
X127715128Y-62811605D01*
X127715128Y-62811605D02*
X127781794Y-62778272D01*
X128115127Y-62611605D02*
X128115127Y-63078272D01*
X128115127Y-62678272D02*
X128148461Y-62644939D01*
X128148461Y-62644939D02*
X128215127Y-62611605D01*
X128215127Y-62611605D02*
X128315127Y-62611605D01*
X128315127Y-62611605D02*
X128381794Y-62644939D01*
X128381794Y-62644939D02*
X128415127Y-62711605D01*
X128415127Y-62711605D02*
X128415127Y-63078272D01*
X129048460Y-62611605D02*
X129048460Y-63178272D01*
X129048460Y-63178272D02*
X129015127Y-63244939D01*
X129015127Y-63244939D02*
X128981794Y-63278272D01*
X128981794Y-63278272D02*
X128915127Y-63311605D01*
X128915127Y-63311605D02*
X128815127Y-63311605D01*
X128815127Y-63311605D02*
X128748460Y-63278272D01*
X129048460Y-63044939D02*
X128981794Y-63078272D01*
X128981794Y-63078272D02*
X128848460Y-63078272D01*
X128848460Y-63078272D02*
X128781794Y-63044939D01*
X128781794Y-63044939D02*
X128748460Y-63011605D01*
X128748460Y-63011605D02*
X128715127Y-62944939D01*
X128715127Y-62944939D02*
X128715127Y-62744939D01*
X128715127Y-62744939D02*
X128748460Y-62678272D01*
X128748460Y-62678272D02*
X128781794Y-62644939D01*
X128781794Y-62644939D02*
X128848460Y-62611605D01*
X128848460Y-62611605D02*
X128981794Y-62611605D01*
X128981794Y-62611605D02*
X129048460Y-62644939D01*
X120881797Y-64271900D02*
X120815130Y-64238566D01*
X120815130Y-64238566D02*
X120748464Y-64171900D01*
X120748464Y-64171900D02*
X120648464Y-64071900D01*
X120648464Y-64071900D02*
X120581797Y-64038566D01*
X120581797Y-64038566D02*
X120515130Y-64038566D01*
X120548464Y-64205233D02*
X120481797Y-64171900D01*
X120481797Y-64171900D02*
X120415130Y-64105233D01*
X120415130Y-64105233D02*
X120381797Y-63971900D01*
X120381797Y-63971900D02*
X120381797Y-63738566D01*
X120381797Y-63738566D02*
X120415130Y-63605233D01*
X120415130Y-63605233D02*
X120481797Y-63538566D01*
X120481797Y-63538566D02*
X120548464Y-63505233D01*
X120548464Y-63505233D02*
X120681797Y-63505233D01*
X120681797Y-63505233D02*
X120748464Y-63538566D01*
X120748464Y-63538566D02*
X120815130Y-63605233D01*
X120815130Y-63605233D02*
X120848464Y-63738566D01*
X120848464Y-63738566D02*
X120848464Y-63971900D01*
X120848464Y-63971900D02*
X120815130Y-64105233D01*
X120815130Y-64105233D02*
X120748464Y-64171900D01*
X120748464Y-64171900D02*
X120681797Y-64205233D01*
X120681797Y-64205233D02*
X120548464Y-64205233D01*
X121448463Y-63738566D02*
X121448463Y-64205233D01*
X121148463Y-63738566D02*
X121148463Y-64105233D01*
X121148463Y-64105233D02*
X121181797Y-64171900D01*
X121181797Y-64171900D02*
X121248463Y-64205233D01*
X121248463Y-64205233D02*
X121348463Y-64205233D01*
X121348463Y-64205233D02*
X121415130Y-64171900D01*
X121415130Y-64171900D02*
X121448463Y-64138566D01*
X121715130Y-63738566D02*
X121881796Y-64205233D01*
X122048463Y-63738566D02*
X121881796Y-64205233D01*
X121881796Y-64205233D02*
X121815130Y-64371900D01*
X121815130Y-64371900D02*
X121781796Y-64405233D01*
X121781796Y-64405233D02*
X121715130Y-64438566D01*
X122315129Y-63738566D02*
X122315129Y-64205233D01*
X122315129Y-63805233D02*
X122348463Y-63771900D01*
X122348463Y-63771900D02*
X122415129Y-63738566D01*
X122415129Y-63738566D02*
X122515129Y-63738566D01*
X122515129Y-63738566D02*
X122581796Y-63771900D01*
X122581796Y-63771900D02*
X122615129Y-63838566D01*
X122615129Y-63838566D02*
X122615129Y-64205233D01*
X122948462Y-64205233D02*
X122948462Y-63505233D01*
X123248462Y-64205233D02*
X123248462Y-63838566D01*
X123248462Y-63838566D02*
X123215129Y-63771900D01*
X123215129Y-63771900D02*
X123148462Y-63738566D01*
X123148462Y-63738566D02*
X123048462Y-63738566D01*
X123048462Y-63738566D02*
X122981796Y-63771900D01*
X122981796Y-63771900D02*
X122948462Y-63805233D01*
X124115128Y-64205233D02*
X124115128Y-63505233D01*
X124115128Y-63505233D02*
X124515128Y-64205233D01*
X124515128Y-64205233D02*
X124515128Y-63505233D01*
X125148461Y-63738566D02*
X125148461Y-64305233D01*
X125148461Y-64305233D02*
X125115128Y-64371900D01*
X125115128Y-64371900D02*
X125081795Y-64405233D01*
X125081795Y-64405233D02*
X125015128Y-64438566D01*
X125015128Y-64438566D02*
X124915128Y-64438566D01*
X124915128Y-64438566D02*
X124848461Y-64405233D01*
X125148461Y-64171900D02*
X125081795Y-64205233D01*
X125081795Y-64205233D02*
X124948461Y-64205233D01*
X124948461Y-64205233D02*
X124881795Y-64171900D01*
X124881795Y-64171900D02*
X124848461Y-64138566D01*
X124848461Y-64138566D02*
X124815128Y-64071900D01*
X124815128Y-64071900D02*
X124815128Y-63871900D01*
X124815128Y-63871900D02*
X124848461Y-63805233D01*
X124848461Y-63805233D02*
X124881795Y-63771900D01*
X124881795Y-63771900D02*
X124948461Y-63738566D01*
X124948461Y-63738566D02*
X125081795Y-63738566D01*
X125081795Y-63738566D02*
X125148461Y-63771900D01*
X125781794Y-63738566D02*
X125781794Y-64205233D01*
X125481794Y-63738566D02*
X125481794Y-64105233D01*
X125481794Y-64105233D02*
X125515128Y-64171900D01*
X125515128Y-64171900D02*
X125581794Y-64205233D01*
X125581794Y-64205233D02*
X125681794Y-64205233D01*
X125681794Y-64205233D02*
X125748461Y-64171900D01*
X125748461Y-64171900D02*
X125781794Y-64138566D01*
X126048461Y-63738566D02*
X126215127Y-64205233D01*
X126381794Y-63738566D02*
X126215127Y-64205233D01*
X126215127Y-64205233D02*
X126148461Y-64371900D01*
X126148461Y-64371900D02*
X126115127Y-64405233D01*
X126115127Y-64405233D02*
X126048461Y-64438566D01*
X126915127Y-64171900D02*
X126848460Y-64205233D01*
X126848460Y-64205233D02*
X126715127Y-64205233D01*
X126715127Y-64205233D02*
X126648460Y-64171900D01*
X126648460Y-64171900D02*
X126615127Y-64105233D01*
X126615127Y-64105233D02*
X126615127Y-63838566D01*
X126615127Y-63838566D02*
X126648460Y-63771900D01*
X126648460Y-63771900D02*
X126715127Y-63738566D01*
X126715127Y-63738566D02*
X126848460Y-63738566D01*
X126848460Y-63738566D02*
X126915127Y-63771900D01*
X126915127Y-63771900D02*
X126948460Y-63838566D01*
X126948460Y-63838566D02*
X126948460Y-63905233D01*
X126948460Y-63905233D02*
X126615127Y-63971900D01*
X127248460Y-63738566D02*
X127248460Y-64205233D01*
X127248460Y-63805233D02*
X127281794Y-63771900D01*
X127281794Y-63771900D02*
X127348460Y-63738566D01*
X127348460Y-63738566D02*
X127448460Y-63738566D01*
X127448460Y-63738566D02*
X127515127Y-63771900D01*
X127515127Y-63771900D02*
X127548460Y-63838566D01*
X127548460Y-63838566D02*
X127548460Y-64205233D01*
D10*
X108896521Y-95791500D02*
X108982236Y-95820071D01*
X108982236Y-95820071D02*
X109125093Y-95820071D01*
X109125093Y-95820071D02*
X109182236Y-95791500D01*
X109182236Y-95791500D02*
X109210807Y-95762928D01*
X109210807Y-95762928D02*
X109239378Y-95705785D01*
X109239378Y-95705785D02*
X109239378Y-95648642D01*
X109239378Y-95648642D02*
X109210807Y-95591500D01*
X109210807Y-95591500D02*
X109182236Y-95562928D01*
X109182236Y-95562928D02*
X109125093Y-95534357D01*
X109125093Y-95534357D02*
X109010807Y-95505785D01*
X109010807Y-95505785D02*
X108953664Y-95477214D01*
X108953664Y-95477214D02*
X108925093Y-95448642D01*
X108925093Y-95448642D02*
X108896521Y-95391500D01*
X108896521Y-95391500D02*
X108896521Y-95334357D01*
X108896521Y-95334357D02*
X108925093Y-95277214D01*
X108925093Y-95277214D02*
X108953664Y-95248642D01*
X108953664Y-95248642D02*
X109010807Y-95220071D01*
X109010807Y-95220071D02*
X109153664Y-95220071D01*
X109153664Y-95220071D02*
X109239378Y-95248642D01*
X109439379Y-95220071D02*
X109582236Y-95820071D01*
X109582236Y-95820071D02*
X109696522Y-95391500D01*
X109696522Y-95391500D02*
X109810807Y-95820071D01*
X109810807Y-95820071D02*
X109953665Y-95220071D01*
X110182236Y-95820071D02*
X110182236Y-95220071D01*
X110182236Y-95220071D02*
X110325093Y-95220071D01*
X110325093Y-95220071D02*
X110410807Y-95248642D01*
X110410807Y-95248642D02*
X110467950Y-95305785D01*
X110467950Y-95305785D02*
X110496521Y-95362928D01*
X110496521Y-95362928D02*
X110525093Y-95477214D01*
X110525093Y-95477214D02*
X110525093Y-95562928D01*
X110525093Y-95562928D02*
X110496521Y-95677214D01*
X110496521Y-95677214D02*
X110467950Y-95734357D01*
X110467950Y-95734357D02*
X110410807Y-95791500D01*
X110410807Y-95791500D02*
X110325093Y-95820071D01*
X110325093Y-95820071D02*
X110182236Y-95820071D01*
X111695704Y-97503478D02*
X111724275Y-97417764D01*
X111724275Y-97417764D02*
X111724275Y-97274906D01*
X111724275Y-97274906D02*
X111695704Y-97217764D01*
X111695704Y-97217764D02*
X111667132Y-97189192D01*
X111667132Y-97189192D02*
X111609989Y-97160621D01*
X111609989Y-97160621D02*
X111552846Y-97160621D01*
X111552846Y-97160621D02*
X111495704Y-97189192D01*
X111495704Y-97189192D02*
X111467132Y-97217764D01*
X111467132Y-97217764D02*
X111438561Y-97274906D01*
X111438561Y-97274906D02*
X111409989Y-97389192D01*
X111409989Y-97389192D02*
X111381418Y-97446335D01*
X111381418Y-97446335D02*
X111352846Y-97474906D01*
X111352846Y-97474906D02*
X111295704Y-97503478D01*
X111295704Y-97503478D02*
X111238561Y-97503478D01*
X111238561Y-97503478D02*
X111181418Y-97474906D01*
X111181418Y-97474906D02*
X111152846Y-97446335D01*
X111152846Y-97446335D02*
X111124275Y-97389192D01*
X111124275Y-97389192D02*
X111124275Y-97246335D01*
X111124275Y-97246335D02*
X111152846Y-97160621D01*
X111124275Y-96989192D02*
X111124275Y-96646335D01*
X111724275Y-96817763D02*
X111124275Y-96817763D01*
X111552846Y-96474906D02*
X111552846Y-96189192D01*
X111724275Y-96532049D02*
X111124275Y-96332049D01*
X111124275Y-96332049D02*
X111724275Y-96132049D01*
X111724275Y-95932048D02*
X111124275Y-95932048D01*
X111124275Y-95932048D02*
X111724275Y-95589191D01*
X111724275Y-95589191D02*
X111124275Y-95589191D01*
X111724275Y-95303477D02*
X111124275Y-95303477D01*
X111124275Y-95303477D02*
X111124275Y-95160620D01*
X111124275Y-95160620D02*
X111152846Y-95074906D01*
X111152846Y-95074906D02*
X111209989Y-95017763D01*
X111209989Y-95017763D02*
X111267132Y-94989192D01*
X111267132Y-94989192D02*
X111381418Y-94960620D01*
X111381418Y-94960620D02*
X111467132Y-94960620D01*
X111467132Y-94960620D02*
X111581418Y-94989192D01*
X111581418Y-94989192D02*
X111638561Y-95017763D01*
X111638561Y-95017763D02*
X111695704Y-95074906D01*
X111695704Y-95074906D02*
X111724275Y-95160620D01*
X111724275Y-95160620D02*
X111724275Y-95303477D01*
X111409989Y-94503477D02*
X111438561Y-94417763D01*
X111438561Y-94417763D02*
X111467132Y-94389192D01*
X111467132Y-94389192D02*
X111524275Y-94360620D01*
X111524275Y-94360620D02*
X111609989Y-94360620D01*
X111609989Y-94360620D02*
X111667132Y-94389192D01*
X111667132Y-94389192D02*
X111695704Y-94417763D01*
X111695704Y-94417763D02*
X111724275Y-94474906D01*
X111724275Y-94474906D02*
X111724275Y-94703477D01*
X111724275Y-94703477D02*
X111124275Y-94703477D01*
X111124275Y-94703477D02*
X111124275Y-94503477D01*
X111124275Y-94503477D02*
X111152846Y-94446335D01*
X111152846Y-94446335D02*
X111181418Y-94417763D01*
X111181418Y-94417763D02*
X111238561Y-94389192D01*
X111238561Y-94389192D02*
X111295704Y-94389192D01*
X111295704Y-94389192D02*
X111352846Y-94417763D01*
X111352846Y-94417763D02*
X111381418Y-94446335D01*
X111381418Y-94446335D02*
X111409989Y-94503477D01*
X111409989Y-94503477D02*
X111409989Y-94703477D01*
X111438561Y-93989192D02*
X111724275Y-93989192D01*
X111124275Y-94189192D02*
X111438561Y-93989192D01*
X111438561Y-93989192D02*
X111124275Y-93789192D01*
X113627636Y-97503478D02*
X113656207Y-97417764D01*
X113656207Y-97417764D02*
X113656207Y-97274906D01*
X113656207Y-97274906D02*
X113627636Y-97217764D01*
X113627636Y-97217764D02*
X113599064Y-97189192D01*
X113599064Y-97189192D02*
X113541921Y-97160621D01*
X113541921Y-97160621D02*
X113484778Y-97160621D01*
X113484778Y-97160621D02*
X113427636Y-97189192D01*
X113427636Y-97189192D02*
X113399064Y-97217764D01*
X113399064Y-97217764D02*
X113370493Y-97274906D01*
X113370493Y-97274906D02*
X113341921Y-97389192D01*
X113341921Y-97389192D02*
X113313350Y-97446335D01*
X113313350Y-97446335D02*
X113284778Y-97474906D01*
X113284778Y-97474906D02*
X113227636Y-97503478D01*
X113227636Y-97503478D02*
X113170493Y-97503478D01*
X113170493Y-97503478D02*
X113113350Y-97474906D01*
X113113350Y-97474906D02*
X113084778Y-97446335D01*
X113084778Y-97446335D02*
X113056207Y-97389192D01*
X113056207Y-97389192D02*
X113056207Y-97246335D01*
X113056207Y-97246335D02*
X113084778Y-97160621D01*
X113056207Y-96989192D02*
X113056207Y-96646335D01*
X113656207Y-96817763D02*
X113056207Y-96817763D01*
X113056207Y-96332049D02*
X113056207Y-96217763D01*
X113056207Y-96217763D02*
X113084778Y-96160620D01*
X113084778Y-96160620D02*
X113141921Y-96103477D01*
X113141921Y-96103477D02*
X113256207Y-96074906D01*
X113256207Y-96074906D02*
X113456207Y-96074906D01*
X113456207Y-96074906D02*
X113570493Y-96103477D01*
X113570493Y-96103477D02*
X113627636Y-96160620D01*
X113627636Y-96160620D02*
X113656207Y-96217763D01*
X113656207Y-96217763D02*
X113656207Y-96332049D01*
X113656207Y-96332049D02*
X113627636Y-96389192D01*
X113627636Y-96389192D02*
X113570493Y-96446334D01*
X113570493Y-96446334D02*
X113456207Y-96474906D01*
X113456207Y-96474906D02*
X113256207Y-96474906D01*
X113256207Y-96474906D02*
X113141921Y-96446334D01*
X113141921Y-96446334D02*
X113084778Y-96389192D01*
X113084778Y-96389192D02*
X113056207Y-96332049D01*
X113656207Y-95474906D02*
X113370493Y-95674906D01*
X113656207Y-95817763D02*
X113056207Y-95817763D01*
X113056207Y-95817763D02*
X113056207Y-95589192D01*
X113056207Y-95589192D02*
X113084778Y-95532049D01*
X113084778Y-95532049D02*
X113113350Y-95503478D01*
X113113350Y-95503478D02*
X113170493Y-95474906D01*
X113170493Y-95474906D02*
X113256207Y-95474906D01*
X113256207Y-95474906D02*
X113313350Y-95503478D01*
X113313350Y-95503478D02*
X113341921Y-95532049D01*
X113341921Y-95532049D02*
X113370493Y-95589192D01*
X113370493Y-95589192D02*
X113370493Y-95817763D01*
X113484778Y-95246335D02*
X113484778Y-94960621D01*
X113656207Y-95303478D02*
X113056207Y-95103478D01*
X113056207Y-95103478D02*
X113656207Y-94903478D01*
X113084778Y-94389192D02*
X113056207Y-94446335D01*
X113056207Y-94446335D02*
X113056207Y-94532049D01*
X113056207Y-94532049D02*
X113084778Y-94617763D01*
X113084778Y-94617763D02*
X113141921Y-94674906D01*
X113141921Y-94674906D02*
X113199064Y-94703477D01*
X113199064Y-94703477D02*
X113313350Y-94732049D01*
X113313350Y-94732049D02*
X113399064Y-94732049D01*
X113399064Y-94732049D02*
X113513350Y-94703477D01*
X113513350Y-94703477D02*
X113570493Y-94674906D01*
X113570493Y-94674906D02*
X113627636Y-94617763D01*
X113627636Y-94617763D02*
X113656207Y-94532049D01*
X113656207Y-94532049D02*
X113656207Y-94474906D01*
X113656207Y-94474906D02*
X113627636Y-94389192D01*
X113627636Y-94389192D02*
X113599064Y-94360620D01*
X113599064Y-94360620D02*
X113399064Y-94360620D01*
X113399064Y-94360620D02*
X113399064Y-94474906D01*
X113341921Y-94103477D02*
X113341921Y-93903477D01*
X113656207Y-93817763D02*
X113656207Y-94103477D01*
X113656207Y-94103477D02*
X113056207Y-94103477D01*
X113056207Y-94103477D02*
X113056207Y-93817763D01*
X115273853Y-97274906D02*
X115273853Y-97474906D01*
X115588139Y-97474906D02*
X114988139Y-97474906D01*
X114988139Y-97474906D02*
X114988139Y-97189192D01*
X115588139Y-96674906D02*
X115588139Y-96960620D01*
X115588139Y-96960620D02*
X114988139Y-96960620D01*
X115588139Y-96474906D02*
X114988139Y-96474906D01*
X115016710Y-95874907D02*
X114988139Y-95932050D01*
X114988139Y-95932050D02*
X114988139Y-96017764D01*
X114988139Y-96017764D02*
X115016710Y-96103478D01*
X115016710Y-96103478D02*
X115073853Y-96160621D01*
X115073853Y-96160621D02*
X115130996Y-96189192D01*
X115130996Y-96189192D02*
X115245282Y-96217764D01*
X115245282Y-96217764D02*
X115330996Y-96217764D01*
X115330996Y-96217764D02*
X115445282Y-96189192D01*
X115445282Y-96189192D02*
X115502425Y-96160621D01*
X115502425Y-96160621D02*
X115559568Y-96103478D01*
X115559568Y-96103478D02*
X115588139Y-96017764D01*
X115588139Y-96017764D02*
X115588139Y-95960621D01*
X115588139Y-95960621D02*
X115559568Y-95874907D01*
X115559568Y-95874907D02*
X115530996Y-95846335D01*
X115530996Y-95846335D02*
X115330996Y-95846335D01*
X115330996Y-95846335D02*
X115330996Y-95960621D01*
X115588139Y-95589192D02*
X114988139Y-95589192D01*
X115273853Y-95589192D02*
X115273853Y-95246335D01*
X115588139Y-95246335D02*
X114988139Y-95246335D01*
X114988139Y-95046336D02*
X114988139Y-94703479D01*
X115588139Y-94874907D02*
X114988139Y-94874907D01*
X117348642Y-97503478D02*
X117348642Y-97217764D01*
X117520071Y-97560621D02*
X116920071Y-97360621D01*
X116920071Y-97360621D02*
X117520071Y-97160621D01*
X117520071Y-96617763D02*
X117234357Y-96817763D01*
X117520071Y-96960620D02*
X116920071Y-96960620D01*
X116920071Y-96960620D02*
X116920071Y-96732049D01*
X116920071Y-96732049D02*
X116948642Y-96674906D01*
X116948642Y-96674906D02*
X116977214Y-96646335D01*
X116977214Y-96646335D02*
X117034357Y-96617763D01*
X117034357Y-96617763D02*
X117120071Y-96617763D01*
X117120071Y-96617763D02*
X117177214Y-96646335D01*
X117177214Y-96646335D02*
X117205785Y-96674906D01*
X117205785Y-96674906D02*
X117234357Y-96732049D01*
X117234357Y-96732049D02*
X117234357Y-96960620D01*
X117520071Y-96360620D02*
X116920071Y-96360620D01*
X116920071Y-96360620D02*
X117348642Y-96160620D01*
X117348642Y-96160620D02*
X116920071Y-95960620D01*
X116920071Y-95960620D02*
X117520071Y-95960620D01*
X117205785Y-95674906D02*
X117205785Y-95474906D01*
X117520071Y-95389192D02*
X117520071Y-95674906D01*
X117520071Y-95674906D02*
X116920071Y-95674906D01*
X116920071Y-95674906D02*
X116920071Y-95389192D01*
X117520071Y-95132049D02*
X116920071Y-95132049D01*
X116920071Y-95132049D02*
X116920071Y-94989192D01*
X116920071Y-94989192D02*
X116948642Y-94903478D01*
X116948642Y-94903478D02*
X117005785Y-94846335D01*
X117005785Y-94846335D02*
X117062928Y-94817764D01*
X117062928Y-94817764D02*
X117177214Y-94789192D01*
X117177214Y-94789192D02*
X117262928Y-94789192D01*
X117262928Y-94789192D02*
X117377214Y-94817764D01*
X117377214Y-94817764D02*
X117434357Y-94846335D01*
X117434357Y-94846335D02*
X117491500Y-94903478D01*
X117491500Y-94903478D02*
X117520071Y-94989192D01*
X117520071Y-94989192D02*
X117520071Y-95132049D01*
X134320071Y-82974906D02*
X133720071Y-82974906D01*
X133720071Y-82974906D02*
X134148642Y-82774906D01*
X134148642Y-82774906D02*
X133720071Y-82574906D01*
X133720071Y-82574906D02*
X134320071Y-82574906D01*
X134148642Y-82317764D02*
X134148642Y-82032050D01*
X134320071Y-82374907D02*
X133720071Y-82174907D01*
X133720071Y-82174907D02*
X134320071Y-81974907D01*
X134320071Y-81774906D02*
X133720071Y-81774906D01*
X134320071Y-81489192D02*
X133720071Y-81489192D01*
X133720071Y-81489192D02*
X134320071Y-81146335D01*
X134320071Y-81146335D02*
X133720071Y-81146335D01*
X134005785Y-72874906D02*
X134034357Y-72789192D01*
X134034357Y-72789192D02*
X134062928Y-72760621D01*
X134062928Y-72760621D02*
X134120071Y-72732049D01*
X134120071Y-72732049D02*
X134205785Y-72732049D01*
X134205785Y-72732049D02*
X134262928Y-72760621D01*
X134262928Y-72760621D02*
X134291500Y-72789192D01*
X134291500Y-72789192D02*
X134320071Y-72846335D01*
X134320071Y-72846335D02*
X134320071Y-73074906D01*
X134320071Y-73074906D02*
X133720071Y-73074906D01*
X133720071Y-73074906D02*
X133720071Y-72874906D01*
X133720071Y-72874906D02*
X133748642Y-72817764D01*
X133748642Y-72817764D02*
X133777214Y-72789192D01*
X133777214Y-72789192D02*
X133834357Y-72760621D01*
X133834357Y-72760621D02*
X133891500Y-72760621D01*
X133891500Y-72760621D02*
X133948642Y-72789192D01*
X133948642Y-72789192D02*
X133977214Y-72817764D01*
X133977214Y-72817764D02*
X134005785Y-72874906D01*
X134005785Y-72874906D02*
X134005785Y-73074906D01*
X134148642Y-72503478D02*
X134148642Y-72217764D01*
X134320071Y-72560621D02*
X133720071Y-72360621D01*
X133720071Y-72360621D02*
X134320071Y-72160621D01*
X134262928Y-71617763D02*
X134291500Y-71646335D01*
X134291500Y-71646335D02*
X134320071Y-71732049D01*
X134320071Y-71732049D02*
X134320071Y-71789192D01*
X134320071Y-71789192D02*
X134291500Y-71874906D01*
X134291500Y-71874906D02*
X134234357Y-71932049D01*
X134234357Y-71932049D02*
X134177214Y-71960620D01*
X134177214Y-71960620D02*
X134062928Y-71989192D01*
X134062928Y-71989192D02*
X133977214Y-71989192D01*
X133977214Y-71989192D02*
X133862928Y-71960620D01*
X133862928Y-71960620D02*
X133805785Y-71932049D01*
X133805785Y-71932049D02*
X133748642Y-71874906D01*
X133748642Y-71874906D02*
X133720071Y-71789192D01*
X133720071Y-71789192D02*
X133720071Y-71732049D01*
X133720071Y-71732049D02*
X133748642Y-71646335D01*
X133748642Y-71646335D02*
X133777214Y-71617763D01*
X134320071Y-71360620D02*
X133720071Y-71360620D01*
X134320071Y-71017763D02*
X133977214Y-71274906D01*
X133720071Y-71017763D02*
X134062928Y-71360620D01*
X133720071Y-70760620D02*
X134205785Y-70760620D01*
X134205785Y-70760620D02*
X134262928Y-70732049D01*
X134262928Y-70732049D02*
X134291500Y-70703478D01*
X134291500Y-70703478D02*
X134320071Y-70646335D01*
X134320071Y-70646335D02*
X134320071Y-70532049D01*
X134320071Y-70532049D02*
X134291500Y-70474906D01*
X134291500Y-70474906D02*
X134262928Y-70446335D01*
X134262928Y-70446335D02*
X134205785Y-70417763D01*
X134205785Y-70417763D02*
X133720071Y-70417763D01*
X134320071Y-70132049D02*
X133720071Y-70132049D01*
X133720071Y-70132049D02*
X133720071Y-69903478D01*
X133720071Y-69903478D02*
X133748642Y-69846335D01*
X133748642Y-69846335D02*
X133777214Y-69817764D01*
X133777214Y-69817764D02*
X133834357Y-69789192D01*
X133834357Y-69789192D02*
X133920071Y-69789192D01*
X133920071Y-69789192D02*
X133977214Y-69817764D01*
X133977214Y-69817764D02*
X134005785Y-69846335D01*
X134005785Y-69846335D02*
X134034357Y-69903478D01*
X134034357Y-69903478D02*
X134034357Y-70132049D01*
X134420071Y-94374906D02*
X133820071Y-94374906D01*
X133820071Y-94374906D02*
X133820071Y-94232049D01*
X133820071Y-94232049D02*
X133848642Y-94146335D01*
X133848642Y-94146335D02*
X133905785Y-94089192D01*
X133905785Y-94089192D02*
X133962928Y-94060621D01*
X133962928Y-94060621D02*
X134077214Y-94032049D01*
X134077214Y-94032049D02*
X134162928Y-94032049D01*
X134162928Y-94032049D02*
X134277214Y-94060621D01*
X134277214Y-94060621D02*
X134334357Y-94089192D01*
X134334357Y-94089192D02*
X134391500Y-94146335D01*
X134391500Y-94146335D02*
X134420071Y-94232049D01*
X134420071Y-94232049D02*
X134420071Y-94374906D01*
X134420071Y-93432049D02*
X134134357Y-93632049D01*
X134420071Y-93774906D02*
X133820071Y-93774906D01*
X133820071Y-93774906D02*
X133820071Y-93546335D01*
X133820071Y-93546335D02*
X133848642Y-93489192D01*
X133848642Y-93489192D02*
X133877214Y-93460621D01*
X133877214Y-93460621D02*
X133934357Y-93432049D01*
X133934357Y-93432049D02*
X134020071Y-93432049D01*
X134020071Y-93432049D02*
X134077214Y-93460621D01*
X134077214Y-93460621D02*
X134105785Y-93489192D01*
X134105785Y-93489192D02*
X134134357Y-93546335D01*
X134134357Y-93546335D02*
X134134357Y-93774906D01*
X133820071Y-93060621D02*
X133820071Y-92946335D01*
X133820071Y-92946335D02*
X133848642Y-92889192D01*
X133848642Y-92889192D02*
X133905785Y-92832049D01*
X133905785Y-92832049D02*
X134020071Y-92803478D01*
X134020071Y-92803478D02*
X134220071Y-92803478D01*
X134220071Y-92803478D02*
X134334357Y-92832049D01*
X134334357Y-92832049D02*
X134391500Y-92889192D01*
X134391500Y-92889192D02*
X134420071Y-92946335D01*
X134420071Y-92946335D02*
X134420071Y-93060621D01*
X134420071Y-93060621D02*
X134391500Y-93117764D01*
X134391500Y-93117764D02*
X134334357Y-93174906D01*
X134334357Y-93174906D02*
X134220071Y-93203478D01*
X134220071Y-93203478D02*
X134020071Y-93203478D01*
X134020071Y-93203478D02*
X133905785Y-93174906D01*
X133905785Y-93174906D02*
X133848642Y-93117764D01*
X133848642Y-93117764D02*
X133820071Y-93060621D01*
X133848642Y-92232050D02*
X133820071Y-92289193D01*
X133820071Y-92289193D02*
X133820071Y-92374907D01*
X133820071Y-92374907D02*
X133848642Y-92460621D01*
X133848642Y-92460621D02*
X133905785Y-92517764D01*
X133905785Y-92517764D02*
X133962928Y-92546335D01*
X133962928Y-92546335D02*
X134077214Y-92574907D01*
X134077214Y-92574907D02*
X134162928Y-92574907D01*
X134162928Y-92574907D02*
X134277214Y-92546335D01*
X134277214Y-92546335D02*
X134334357Y-92517764D01*
X134334357Y-92517764D02*
X134391500Y-92460621D01*
X134391500Y-92460621D02*
X134420071Y-92374907D01*
X134420071Y-92374907D02*
X134420071Y-92317764D01*
X134420071Y-92317764D02*
X134391500Y-92232050D01*
X134391500Y-92232050D02*
X134362928Y-92203478D01*
X134362928Y-92203478D02*
X134162928Y-92203478D01*
X134162928Y-92203478D02*
X134162928Y-92317764D01*
X133820071Y-91946335D02*
X134305785Y-91946335D01*
X134305785Y-91946335D02*
X134362928Y-91917764D01*
X134362928Y-91917764D02*
X134391500Y-91889193D01*
X134391500Y-91889193D02*
X134420071Y-91832050D01*
X134420071Y-91832050D02*
X134420071Y-91717764D01*
X134420071Y-91717764D02*
X134391500Y-91660621D01*
X134391500Y-91660621D02*
X134362928Y-91632050D01*
X134362928Y-91632050D02*
X134305785Y-91603478D01*
X134305785Y-91603478D02*
X133820071Y-91603478D01*
X134105785Y-91317764D02*
X134105785Y-91117764D01*
X134420071Y-91032050D02*
X134420071Y-91317764D01*
X134420071Y-91317764D02*
X133820071Y-91317764D01*
X133820071Y-91317764D02*
X133820071Y-91032050D01*
D12*
X88722054Y-57665367D02*
X88988720Y-57665367D01*
X89103006Y-58084415D02*
X88722054Y-58084415D01*
X88722054Y-58084415D02*
X88722054Y-57284415D01*
X88722054Y-57284415D02*
X89103006Y-57284415D01*
X89826816Y-58084415D02*
X89445864Y-58084415D01*
X89445864Y-58084415D02*
X89445864Y-57284415D01*
X90093483Y-57665367D02*
X90360149Y-57665367D01*
X90474435Y-58084415D02*
X90093483Y-58084415D01*
X90093483Y-58084415D02*
X90093483Y-57284415D01*
X90093483Y-57284415D02*
X90474435Y-57284415D01*
X90703007Y-57284415D02*
X90969674Y-58084415D01*
X90969674Y-58084415D02*
X91236340Y-57284415D01*
X91464911Y-57855843D02*
X91845864Y-57855843D01*
X91388721Y-58084415D02*
X91655388Y-57284415D01*
X91655388Y-57284415D02*
X91922054Y-58084415D01*
X92074435Y-57284415D02*
X92531578Y-57284415D01*
X92303006Y-58084415D02*
X92303006Y-57284415D01*
X92950626Y-57284415D02*
X93103007Y-57284415D01*
X93103007Y-57284415D02*
X93179197Y-57322510D01*
X93179197Y-57322510D02*
X93255388Y-57398700D01*
X93255388Y-57398700D02*
X93293483Y-57551081D01*
X93293483Y-57551081D02*
X93293483Y-57817748D01*
X93293483Y-57817748D02*
X93255388Y-57970129D01*
X93255388Y-57970129D02*
X93179197Y-58046320D01*
X93179197Y-58046320D02*
X93103007Y-58084415D01*
X93103007Y-58084415D02*
X92950626Y-58084415D01*
X92950626Y-58084415D02*
X92874435Y-58046320D01*
X92874435Y-58046320D02*
X92798245Y-57970129D01*
X92798245Y-57970129D02*
X92760149Y-57817748D01*
X92760149Y-57817748D02*
X92760149Y-57551081D01*
X92760149Y-57551081D02*
X92798245Y-57398700D01*
X92798245Y-57398700D02*
X92874435Y-57322510D01*
X92874435Y-57322510D02*
X92950626Y-57284415D01*
X94093483Y-58084415D02*
X93826816Y-57703462D01*
X93636340Y-58084415D02*
X93636340Y-57284415D01*
X93636340Y-57284415D02*
X93941102Y-57284415D01*
X93941102Y-57284415D02*
X94017292Y-57322510D01*
X94017292Y-57322510D02*
X94055387Y-57360605D01*
X94055387Y-57360605D02*
X94093483Y-57436796D01*
X94093483Y-57436796D02*
X94093483Y-57551081D01*
X94093483Y-57551081D02*
X94055387Y-57627272D01*
X94055387Y-57627272D02*
X94017292Y-57665367D01*
X94017292Y-57665367D02*
X93941102Y-57703462D01*
X93941102Y-57703462D02*
X93636340Y-57703462D01*
X89179197Y-60660325D02*
X88912530Y-60279372D01*
X88722054Y-60660325D02*
X88722054Y-59860325D01*
X88722054Y-59860325D02*
X89026816Y-59860325D01*
X89026816Y-59860325D02*
X89103006Y-59898420D01*
X89103006Y-59898420D02*
X89141101Y-59936515D01*
X89141101Y-59936515D02*
X89179197Y-60012706D01*
X89179197Y-60012706D02*
X89179197Y-60126991D01*
X89179197Y-60126991D02*
X89141101Y-60203182D01*
X89141101Y-60203182D02*
X89103006Y-60241277D01*
X89103006Y-60241277D02*
X89026816Y-60279372D01*
X89026816Y-60279372D02*
X88722054Y-60279372D01*
X89522054Y-59860325D02*
X89522054Y-60507944D01*
X89522054Y-60507944D02*
X89560149Y-60584134D01*
X89560149Y-60584134D02*
X89598244Y-60622230D01*
X89598244Y-60622230D02*
X89674435Y-60660325D01*
X89674435Y-60660325D02*
X89826816Y-60660325D01*
X89826816Y-60660325D02*
X89903006Y-60622230D01*
X89903006Y-60622230D02*
X89941101Y-60584134D01*
X89941101Y-60584134D02*
X89979197Y-60507944D01*
X89979197Y-60507944D02*
X89979197Y-59860325D01*
X90360149Y-60660325D02*
X90360149Y-59860325D01*
X90360149Y-59860325D02*
X90550625Y-59860325D01*
X90550625Y-59860325D02*
X90664911Y-59898420D01*
X90664911Y-59898420D02*
X90741101Y-59974610D01*
X90741101Y-59974610D02*
X90779196Y-60050801D01*
X90779196Y-60050801D02*
X90817292Y-60203182D01*
X90817292Y-60203182D02*
X90817292Y-60317468D01*
X90817292Y-60317468D02*
X90779196Y-60469849D01*
X90779196Y-60469849D02*
X90741101Y-60546039D01*
X90741101Y-60546039D02*
X90664911Y-60622230D01*
X90664911Y-60622230D02*
X90550625Y-60660325D01*
X90550625Y-60660325D02*
X90360149Y-60660325D01*
X91160149Y-60660325D02*
X91160149Y-59860325D01*
X91160149Y-59860325D02*
X91350625Y-59860325D01*
X91350625Y-59860325D02*
X91464911Y-59898420D01*
X91464911Y-59898420D02*
X91541101Y-59974610D01*
X91541101Y-59974610D02*
X91579196Y-60050801D01*
X91579196Y-60050801D02*
X91617292Y-60203182D01*
X91617292Y-60203182D02*
X91617292Y-60317468D01*
X91617292Y-60317468D02*
X91579196Y-60469849D01*
X91579196Y-60469849D02*
X91541101Y-60546039D01*
X91541101Y-60546039D02*
X91464911Y-60622230D01*
X91464911Y-60622230D02*
X91350625Y-60660325D01*
X91350625Y-60660325D02*
X91160149Y-60660325D01*
X91960149Y-60241277D02*
X92226815Y-60241277D01*
X92341101Y-60660325D02*
X91960149Y-60660325D01*
X91960149Y-60660325D02*
X91960149Y-59860325D01*
X91960149Y-59860325D02*
X92341101Y-59860325D01*
X93141102Y-60660325D02*
X92874435Y-60279372D01*
X92683959Y-60660325D02*
X92683959Y-59860325D01*
X92683959Y-59860325D02*
X92988721Y-59860325D01*
X92988721Y-59860325D02*
X93064911Y-59898420D01*
X93064911Y-59898420D02*
X93103006Y-59936515D01*
X93103006Y-59936515D02*
X93141102Y-60012706D01*
X93141102Y-60012706D02*
X93141102Y-60126991D01*
X93141102Y-60126991D02*
X93103006Y-60203182D01*
X93103006Y-60203182D02*
X93064911Y-60241277D01*
X93064911Y-60241277D02*
X92988721Y-60279372D01*
X92988721Y-60279372D02*
X92683959Y-60279372D01*
X88683958Y-63007663D02*
X89064911Y-63007663D01*
X88607768Y-63236235D02*
X88874435Y-62436235D01*
X88874435Y-62436235D02*
X89141101Y-63236235D01*
X89407768Y-63236235D02*
X89407768Y-62436235D01*
X90169672Y-63236235D02*
X89788720Y-63236235D01*
X89788720Y-63236235D02*
X89788720Y-62436235D01*
X90436339Y-62817187D02*
X90703005Y-62817187D01*
X90817291Y-63236235D02*
X90436339Y-63236235D01*
X90436339Y-63236235D02*
X90436339Y-62436235D01*
X90436339Y-62436235D02*
X90817291Y-62436235D01*
X91617292Y-63236235D02*
X91350625Y-62855282D01*
X91160149Y-63236235D02*
X91160149Y-62436235D01*
X91160149Y-62436235D02*
X91464911Y-62436235D01*
X91464911Y-62436235D02*
X91541101Y-62474330D01*
X91541101Y-62474330D02*
X91579196Y-62512425D01*
X91579196Y-62512425D02*
X91617292Y-62588616D01*
X91617292Y-62588616D02*
X91617292Y-62702901D01*
X91617292Y-62702901D02*
X91579196Y-62779092D01*
X91579196Y-62779092D02*
X91541101Y-62817187D01*
X91541101Y-62817187D02*
X91464911Y-62855282D01*
X91464911Y-62855282D02*
X91160149Y-62855282D01*
X92112530Y-62436235D02*
X92264911Y-62436235D01*
X92264911Y-62436235D02*
X92341101Y-62474330D01*
X92341101Y-62474330D02*
X92417292Y-62550520D01*
X92417292Y-62550520D02*
X92455387Y-62702901D01*
X92455387Y-62702901D02*
X92455387Y-62969568D01*
X92455387Y-62969568D02*
X92417292Y-63121949D01*
X92417292Y-63121949D02*
X92341101Y-63198140D01*
X92341101Y-63198140D02*
X92264911Y-63236235D01*
X92264911Y-63236235D02*
X92112530Y-63236235D01*
X92112530Y-63236235D02*
X92036339Y-63198140D01*
X92036339Y-63198140D02*
X91960149Y-63121949D01*
X91960149Y-63121949D02*
X91922053Y-62969568D01*
X91922053Y-62969568D02*
X91922053Y-62702901D01*
X91922053Y-62702901D02*
X91960149Y-62550520D01*
X91960149Y-62550520D02*
X92036339Y-62474330D01*
X92036339Y-62474330D02*
X92112530Y-62436235D01*
X92798244Y-63236235D02*
X92798244Y-62436235D01*
X92798244Y-62436235D02*
X93255387Y-63236235D01*
X93255387Y-63236235D02*
X93255387Y-62436235D01*
X94626815Y-63236235D02*
X94245863Y-63236235D01*
X94245863Y-63236235D02*
X94245863Y-62436235D01*
X94893482Y-62817187D02*
X95160148Y-62817187D01*
X95274434Y-63236235D02*
X94893482Y-63236235D01*
X94893482Y-63236235D02*
X94893482Y-62436235D01*
X94893482Y-62436235D02*
X95274434Y-62436235D01*
X95883958Y-62817187D02*
X95617292Y-62817187D01*
X95617292Y-63236235D02*
X95617292Y-62436235D01*
X95617292Y-62436235D02*
X95998244Y-62436235D01*
X96188720Y-62436235D02*
X96645863Y-62436235D01*
X96417291Y-63236235D02*
X96417291Y-62436235D01*
X88683958Y-65583573D02*
X89064911Y-65583573D01*
X88607768Y-65812145D02*
X88874435Y-65012145D01*
X88874435Y-65012145D02*
X89141101Y-65812145D01*
X89407768Y-65812145D02*
X89407768Y-65012145D01*
X90169672Y-65812145D02*
X89788720Y-65812145D01*
X89788720Y-65812145D02*
X89788720Y-65012145D01*
X90436339Y-65393097D02*
X90703005Y-65393097D01*
X90817291Y-65812145D02*
X90436339Y-65812145D01*
X90436339Y-65812145D02*
X90436339Y-65012145D01*
X90436339Y-65012145D02*
X90817291Y-65012145D01*
X91617292Y-65812145D02*
X91350625Y-65431192D01*
X91160149Y-65812145D02*
X91160149Y-65012145D01*
X91160149Y-65012145D02*
X91464911Y-65012145D01*
X91464911Y-65012145D02*
X91541101Y-65050240D01*
X91541101Y-65050240D02*
X91579196Y-65088335D01*
X91579196Y-65088335D02*
X91617292Y-65164526D01*
X91617292Y-65164526D02*
X91617292Y-65278811D01*
X91617292Y-65278811D02*
X91579196Y-65355002D01*
X91579196Y-65355002D02*
X91541101Y-65393097D01*
X91541101Y-65393097D02*
X91464911Y-65431192D01*
X91464911Y-65431192D02*
X91160149Y-65431192D01*
X92112530Y-65012145D02*
X92264911Y-65012145D01*
X92264911Y-65012145D02*
X92341101Y-65050240D01*
X92341101Y-65050240D02*
X92417292Y-65126430D01*
X92417292Y-65126430D02*
X92455387Y-65278811D01*
X92455387Y-65278811D02*
X92455387Y-65545478D01*
X92455387Y-65545478D02*
X92417292Y-65697859D01*
X92417292Y-65697859D02*
X92341101Y-65774050D01*
X92341101Y-65774050D02*
X92264911Y-65812145D01*
X92264911Y-65812145D02*
X92112530Y-65812145D01*
X92112530Y-65812145D02*
X92036339Y-65774050D01*
X92036339Y-65774050D02*
X91960149Y-65697859D01*
X91960149Y-65697859D02*
X91922053Y-65545478D01*
X91922053Y-65545478D02*
X91922053Y-65278811D01*
X91922053Y-65278811D02*
X91960149Y-65126430D01*
X91960149Y-65126430D02*
X92036339Y-65050240D01*
X92036339Y-65050240D02*
X92112530Y-65012145D01*
X92798244Y-65812145D02*
X92798244Y-65012145D01*
X92798244Y-65012145D02*
X93255387Y-65812145D01*
X93255387Y-65812145D02*
X93255387Y-65012145D01*
X94703006Y-65812145D02*
X94436339Y-65431192D01*
X94245863Y-65812145D02*
X94245863Y-65012145D01*
X94245863Y-65012145D02*
X94550625Y-65012145D01*
X94550625Y-65012145D02*
X94626815Y-65050240D01*
X94626815Y-65050240D02*
X94664910Y-65088335D01*
X94664910Y-65088335D02*
X94703006Y-65164526D01*
X94703006Y-65164526D02*
X94703006Y-65278811D01*
X94703006Y-65278811D02*
X94664910Y-65355002D01*
X94664910Y-65355002D02*
X94626815Y-65393097D01*
X94626815Y-65393097D02*
X94550625Y-65431192D01*
X94550625Y-65431192D02*
X94245863Y-65431192D01*
X95045863Y-65812145D02*
X95045863Y-65012145D01*
X95845862Y-65050240D02*
X95769672Y-65012145D01*
X95769672Y-65012145D02*
X95655386Y-65012145D01*
X95655386Y-65012145D02*
X95541100Y-65050240D01*
X95541100Y-65050240D02*
X95464910Y-65126430D01*
X95464910Y-65126430D02*
X95426815Y-65202621D01*
X95426815Y-65202621D02*
X95388719Y-65355002D01*
X95388719Y-65355002D02*
X95388719Y-65469288D01*
X95388719Y-65469288D02*
X95426815Y-65621669D01*
X95426815Y-65621669D02*
X95464910Y-65697859D01*
X95464910Y-65697859D02*
X95541100Y-65774050D01*
X95541100Y-65774050D02*
X95655386Y-65812145D01*
X95655386Y-65812145D02*
X95731577Y-65812145D01*
X95731577Y-65812145D02*
X95845862Y-65774050D01*
X95845862Y-65774050D02*
X95883958Y-65735954D01*
X95883958Y-65735954D02*
X95883958Y-65469288D01*
X95883958Y-65469288D02*
X95731577Y-65469288D01*
X96226815Y-65812145D02*
X96226815Y-65012145D01*
X96226815Y-65393097D02*
X96683958Y-65393097D01*
X96683958Y-65812145D02*
X96683958Y-65012145D01*
X96950624Y-65012145D02*
X97407767Y-65012145D01*
X97179195Y-65812145D02*
X97179195Y-65012145D01*
X88988720Y-67969007D02*
X88722054Y-67969007D01*
X88722054Y-68388055D02*
X88722054Y-67588055D01*
X88722054Y-67588055D02*
X89103006Y-67588055D01*
X89788720Y-68388055D02*
X89407768Y-68388055D01*
X89407768Y-68388055D02*
X89407768Y-67588055D01*
X90017291Y-68159483D02*
X90398244Y-68159483D01*
X89941101Y-68388055D02*
X90207768Y-67588055D01*
X90207768Y-67588055D02*
X90474434Y-68388055D01*
X90741101Y-68388055D02*
X90741101Y-67588055D01*
X90741101Y-67588055D02*
X91045863Y-67588055D01*
X91045863Y-67588055D02*
X91122053Y-67626150D01*
X91122053Y-67626150D02*
X91160148Y-67664245D01*
X91160148Y-67664245D02*
X91198244Y-67740436D01*
X91198244Y-67740436D02*
X91198244Y-67854721D01*
X91198244Y-67854721D02*
X91160148Y-67930912D01*
X91160148Y-67930912D02*
X91122053Y-67969007D01*
X91122053Y-67969007D02*
X91045863Y-68007102D01*
X91045863Y-68007102D02*
X90741101Y-68007102D01*
X92531577Y-68388055D02*
X92150625Y-68388055D01*
X92150625Y-68388055D02*
X92150625Y-67588055D01*
X92798244Y-67969007D02*
X93064910Y-67969007D01*
X93179196Y-68388055D02*
X92798244Y-68388055D01*
X92798244Y-68388055D02*
X92798244Y-67588055D01*
X92798244Y-67588055D02*
X93179196Y-67588055D01*
X93788720Y-67969007D02*
X93522054Y-67969007D01*
X93522054Y-68388055D02*
X93522054Y-67588055D01*
X93522054Y-67588055D02*
X93903006Y-67588055D01*
X94093482Y-67588055D02*
X94550625Y-67588055D01*
X94322053Y-68388055D02*
X94322053Y-67588055D01*
X88988720Y-70544917D02*
X88722054Y-70544917D01*
X88722054Y-70963965D02*
X88722054Y-70163965D01*
X88722054Y-70163965D02*
X89103006Y-70163965D01*
X89788720Y-70963965D02*
X89407768Y-70963965D01*
X89407768Y-70963965D02*
X89407768Y-70163965D01*
X90017291Y-70735393D02*
X90398244Y-70735393D01*
X89941101Y-70963965D02*
X90207768Y-70163965D01*
X90207768Y-70163965D02*
X90474434Y-70963965D01*
X90741101Y-70963965D02*
X90741101Y-70163965D01*
X90741101Y-70163965D02*
X91045863Y-70163965D01*
X91045863Y-70163965D02*
X91122053Y-70202060D01*
X91122053Y-70202060D02*
X91160148Y-70240155D01*
X91160148Y-70240155D02*
X91198244Y-70316346D01*
X91198244Y-70316346D02*
X91198244Y-70430631D01*
X91198244Y-70430631D02*
X91160148Y-70506822D01*
X91160148Y-70506822D02*
X91122053Y-70544917D01*
X91122053Y-70544917D02*
X91045863Y-70583012D01*
X91045863Y-70583012D02*
X90741101Y-70583012D01*
X92607768Y-70963965D02*
X92341101Y-70583012D01*
X92150625Y-70963965D02*
X92150625Y-70163965D01*
X92150625Y-70163965D02*
X92455387Y-70163965D01*
X92455387Y-70163965D02*
X92531577Y-70202060D01*
X92531577Y-70202060D02*
X92569672Y-70240155D01*
X92569672Y-70240155D02*
X92607768Y-70316346D01*
X92607768Y-70316346D02*
X92607768Y-70430631D01*
X92607768Y-70430631D02*
X92569672Y-70506822D01*
X92569672Y-70506822D02*
X92531577Y-70544917D01*
X92531577Y-70544917D02*
X92455387Y-70583012D01*
X92455387Y-70583012D02*
X92150625Y-70583012D01*
X92950625Y-70963965D02*
X92950625Y-70163965D01*
X93750624Y-70202060D02*
X93674434Y-70163965D01*
X93674434Y-70163965D02*
X93560148Y-70163965D01*
X93560148Y-70163965D02*
X93445862Y-70202060D01*
X93445862Y-70202060D02*
X93369672Y-70278250D01*
X93369672Y-70278250D02*
X93331577Y-70354441D01*
X93331577Y-70354441D02*
X93293481Y-70506822D01*
X93293481Y-70506822D02*
X93293481Y-70621108D01*
X93293481Y-70621108D02*
X93331577Y-70773489D01*
X93331577Y-70773489D02*
X93369672Y-70849679D01*
X93369672Y-70849679D02*
X93445862Y-70925870D01*
X93445862Y-70925870D02*
X93560148Y-70963965D01*
X93560148Y-70963965D02*
X93636339Y-70963965D01*
X93636339Y-70963965D02*
X93750624Y-70925870D01*
X93750624Y-70925870D02*
X93788720Y-70887774D01*
X93788720Y-70887774D02*
X93788720Y-70621108D01*
X93788720Y-70621108D02*
X93636339Y-70621108D01*
X94131577Y-70963965D02*
X94131577Y-70163965D01*
X94131577Y-70544917D02*
X94588720Y-70544917D01*
X94588720Y-70963965D02*
X94588720Y-70163965D01*
X94855386Y-70163965D02*
X95312529Y-70163965D01*
X95083957Y-70963965D02*
X95083957Y-70163965D01*
X88722054Y-73120827D02*
X88988720Y-73120827D01*
X89103006Y-73539875D02*
X88722054Y-73539875D01*
X88722054Y-73539875D02*
X88722054Y-72739875D01*
X88722054Y-72739875D02*
X89103006Y-72739875D01*
X89826816Y-73539875D02*
X89445864Y-73539875D01*
X89445864Y-73539875D02*
X89445864Y-72739875D01*
X90093483Y-73120827D02*
X90360149Y-73120827D01*
X90474435Y-73539875D02*
X90093483Y-73539875D01*
X90093483Y-73539875D02*
X90093483Y-72739875D01*
X90093483Y-72739875D02*
X90474435Y-72739875D01*
X91274436Y-73463684D02*
X91236340Y-73501780D01*
X91236340Y-73501780D02*
X91122055Y-73539875D01*
X91122055Y-73539875D02*
X91045864Y-73539875D01*
X91045864Y-73539875D02*
X90931578Y-73501780D01*
X90931578Y-73501780D02*
X90855388Y-73425589D01*
X90855388Y-73425589D02*
X90817293Y-73349399D01*
X90817293Y-73349399D02*
X90779197Y-73197018D01*
X90779197Y-73197018D02*
X90779197Y-73082732D01*
X90779197Y-73082732D02*
X90817293Y-72930351D01*
X90817293Y-72930351D02*
X90855388Y-72854160D01*
X90855388Y-72854160D02*
X90931578Y-72777970D01*
X90931578Y-72777970D02*
X91045864Y-72739875D01*
X91045864Y-72739875D02*
X91122055Y-72739875D01*
X91122055Y-72739875D02*
X91236340Y-72777970D01*
X91236340Y-72777970D02*
X91274436Y-72816065D01*
X92188721Y-73501780D02*
X92303007Y-73539875D01*
X92303007Y-73539875D02*
X92493483Y-73539875D01*
X92493483Y-73539875D02*
X92569674Y-73501780D01*
X92569674Y-73501780D02*
X92607769Y-73463684D01*
X92607769Y-73463684D02*
X92645864Y-73387494D01*
X92645864Y-73387494D02*
X92645864Y-73311303D01*
X92645864Y-73311303D02*
X92607769Y-73235113D01*
X92607769Y-73235113D02*
X92569674Y-73197018D01*
X92569674Y-73197018D02*
X92493483Y-73158922D01*
X92493483Y-73158922D02*
X92341102Y-73120827D01*
X92341102Y-73120827D02*
X92264912Y-73082732D01*
X92264912Y-73082732D02*
X92226817Y-73044637D01*
X92226817Y-73044637D02*
X92188721Y-72968446D01*
X92188721Y-72968446D02*
X92188721Y-72892256D01*
X92188721Y-72892256D02*
X92226817Y-72816065D01*
X92226817Y-72816065D02*
X92264912Y-72777970D01*
X92264912Y-72777970D02*
X92341102Y-72739875D01*
X92341102Y-72739875D02*
X92531579Y-72739875D01*
X92531579Y-72739875D02*
X92645864Y-72777970D01*
X92988722Y-73539875D02*
X92988722Y-72739875D01*
X92988722Y-72739875D02*
X93293484Y-72739875D01*
X93293484Y-72739875D02*
X93369674Y-72777970D01*
X93369674Y-72777970D02*
X93407769Y-72816065D01*
X93407769Y-72816065D02*
X93445865Y-72892256D01*
X93445865Y-72892256D02*
X93445865Y-73006541D01*
X93445865Y-73006541D02*
X93407769Y-73082732D01*
X93407769Y-73082732D02*
X93369674Y-73120827D01*
X93369674Y-73120827D02*
X93293484Y-73158922D01*
X93293484Y-73158922D02*
X92988722Y-73158922D01*
X93788722Y-73120827D02*
X94055388Y-73120827D01*
X94169674Y-73539875D02*
X93788722Y-73539875D01*
X93788722Y-73539875D02*
X93788722Y-72739875D01*
X93788722Y-72739875D02*
X94169674Y-72739875D01*
X94512532Y-73120827D02*
X94779198Y-73120827D01*
X94893484Y-73539875D02*
X94512532Y-73539875D01*
X94512532Y-73539875D02*
X94512532Y-72739875D01*
X94512532Y-72739875D02*
X94893484Y-72739875D01*
X95236342Y-73539875D02*
X95236342Y-72739875D01*
X95236342Y-72739875D02*
X95426818Y-72739875D01*
X95426818Y-72739875D02*
X95541104Y-72777970D01*
X95541104Y-72777970D02*
X95617294Y-72854160D01*
X95617294Y-72854160D02*
X95655389Y-72930351D01*
X95655389Y-72930351D02*
X95693485Y-73082732D01*
X95693485Y-73082732D02*
X95693485Y-73197018D01*
X95693485Y-73197018D02*
X95655389Y-73349399D01*
X95655389Y-73349399D02*
X95617294Y-73425589D01*
X95617294Y-73425589D02*
X95541104Y-73501780D01*
X95541104Y-73501780D02*
X95426818Y-73539875D01*
X95426818Y-73539875D02*
X95236342Y-73539875D01*
X97103009Y-73463684D02*
X97064913Y-73501780D01*
X97064913Y-73501780D02*
X96950628Y-73539875D01*
X96950628Y-73539875D02*
X96874437Y-73539875D01*
X96874437Y-73539875D02*
X96760151Y-73501780D01*
X96760151Y-73501780D02*
X96683961Y-73425589D01*
X96683961Y-73425589D02*
X96645866Y-73349399D01*
X96645866Y-73349399D02*
X96607770Y-73197018D01*
X96607770Y-73197018D02*
X96607770Y-73082732D01*
X96607770Y-73082732D02*
X96645866Y-72930351D01*
X96645866Y-72930351D02*
X96683961Y-72854160D01*
X96683961Y-72854160D02*
X96760151Y-72777970D01*
X96760151Y-72777970D02*
X96874437Y-72739875D01*
X96874437Y-72739875D02*
X96950628Y-72739875D01*
X96950628Y-72739875D02*
X97064913Y-72777970D01*
X97064913Y-72777970D02*
X97103009Y-72816065D01*
X97598247Y-72739875D02*
X97750628Y-72739875D01*
X97750628Y-72739875D02*
X97826818Y-72777970D01*
X97826818Y-72777970D02*
X97903009Y-72854160D01*
X97903009Y-72854160D02*
X97941104Y-73006541D01*
X97941104Y-73006541D02*
X97941104Y-73273208D01*
X97941104Y-73273208D02*
X97903009Y-73425589D01*
X97903009Y-73425589D02*
X97826818Y-73501780D01*
X97826818Y-73501780D02*
X97750628Y-73539875D01*
X97750628Y-73539875D02*
X97598247Y-73539875D01*
X97598247Y-73539875D02*
X97522056Y-73501780D01*
X97522056Y-73501780D02*
X97445866Y-73425589D01*
X97445866Y-73425589D02*
X97407770Y-73273208D01*
X97407770Y-73273208D02*
X97407770Y-73006541D01*
X97407770Y-73006541D02*
X97445866Y-72854160D01*
X97445866Y-72854160D02*
X97522056Y-72777970D01*
X97522056Y-72777970D02*
X97598247Y-72739875D01*
X98283961Y-73539875D02*
X98283961Y-72739875D01*
X98283961Y-72739875D02*
X98741104Y-73539875D01*
X98741104Y-73539875D02*
X98741104Y-72739875D01*
X99007770Y-72739875D02*
X99464913Y-72739875D01*
X99236341Y-73539875D02*
X99236341Y-72739875D01*
X100188723Y-73539875D02*
X99922056Y-73158922D01*
X99731580Y-73539875D02*
X99731580Y-72739875D01*
X99731580Y-72739875D02*
X100036342Y-72739875D01*
X100036342Y-72739875D02*
X100112532Y-72777970D01*
X100112532Y-72777970D02*
X100150627Y-72816065D01*
X100150627Y-72816065D02*
X100188723Y-72892256D01*
X100188723Y-72892256D02*
X100188723Y-73006541D01*
X100188723Y-73006541D02*
X100150627Y-73082732D01*
X100150627Y-73082732D02*
X100112532Y-73120827D01*
X100112532Y-73120827D02*
X100036342Y-73158922D01*
X100036342Y-73158922D02*
X99731580Y-73158922D01*
X89103006Y-76115785D02*
X88722054Y-76115785D01*
X88722054Y-76115785D02*
X88722054Y-75315785D01*
X89369673Y-75696737D02*
X89636339Y-75696737D01*
X89750625Y-76115785D02*
X89369673Y-76115785D01*
X89369673Y-76115785D02*
X89369673Y-75315785D01*
X89369673Y-75315785D02*
X89750625Y-75315785D01*
X90093483Y-76115785D02*
X90093483Y-75315785D01*
X90093483Y-75315785D02*
X90283959Y-75315785D01*
X90283959Y-75315785D02*
X90398245Y-75353880D01*
X90398245Y-75353880D02*
X90474435Y-75430070D01*
X90474435Y-75430070D02*
X90512530Y-75506261D01*
X90512530Y-75506261D02*
X90550626Y-75658642D01*
X90550626Y-75658642D02*
X90550626Y-75772928D01*
X90550626Y-75772928D02*
X90512530Y-75925309D01*
X90512530Y-75925309D02*
X90474435Y-76001499D01*
X90474435Y-76001499D02*
X90398245Y-76077690D01*
X90398245Y-76077690D02*
X90283959Y-76115785D01*
X90283959Y-76115785D02*
X90093483Y-76115785D01*
X91883959Y-76115785D02*
X91503007Y-76115785D01*
X91503007Y-76115785D02*
X91503007Y-75315785D01*
X92150626Y-75696737D02*
X92417292Y-75696737D01*
X92531578Y-76115785D02*
X92150626Y-76115785D01*
X92150626Y-76115785D02*
X92150626Y-75315785D01*
X92150626Y-75315785D02*
X92531578Y-75315785D01*
X93141102Y-75696737D02*
X92874436Y-75696737D01*
X92874436Y-76115785D02*
X92874436Y-75315785D01*
X92874436Y-75315785D02*
X93255388Y-75315785D01*
X93445864Y-75315785D02*
X93903007Y-75315785D01*
X93674435Y-76115785D02*
X93674435Y-75315785D01*
X89103006Y-78691695D02*
X88722054Y-78691695D01*
X88722054Y-78691695D02*
X88722054Y-77891695D01*
X89369673Y-78272647D02*
X89636339Y-78272647D01*
X89750625Y-78691695D02*
X89369673Y-78691695D01*
X89369673Y-78691695D02*
X89369673Y-77891695D01*
X89369673Y-77891695D02*
X89750625Y-77891695D01*
X90093483Y-78691695D02*
X90093483Y-77891695D01*
X90093483Y-77891695D02*
X90283959Y-77891695D01*
X90283959Y-77891695D02*
X90398245Y-77929790D01*
X90398245Y-77929790D02*
X90474435Y-78005980D01*
X90474435Y-78005980D02*
X90512530Y-78082171D01*
X90512530Y-78082171D02*
X90550626Y-78234552D01*
X90550626Y-78234552D02*
X90550626Y-78348838D01*
X90550626Y-78348838D02*
X90512530Y-78501219D01*
X90512530Y-78501219D02*
X90474435Y-78577409D01*
X90474435Y-78577409D02*
X90398245Y-78653600D01*
X90398245Y-78653600D02*
X90283959Y-78691695D01*
X90283959Y-78691695D02*
X90093483Y-78691695D01*
X91960150Y-78691695D02*
X91693483Y-78310742D01*
X91503007Y-78691695D02*
X91503007Y-77891695D01*
X91503007Y-77891695D02*
X91807769Y-77891695D01*
X91807769Y-77891695D02*
X91883959Y-77929790D01*
X91883959Y-77929790D02*
X91922054Y-77967885D01*
X91922054Y-77967885D02*
X91960150Y-78044076D01*
X91960150Y-78044076D02*
X91960150Y-78158361D01*
X91960150Y-78158361D02*
X91922054Y-78234552D01*
X91922054Y-78234552D02*
X91883959Y-78272647D01*
X91883959Y-78272647D02*
X91807769Y-78310742D01*
X91807769Y-78310742D02*
X91503007Y-78310742D01*
X92303007Y-78691695D02*
X92303007Y-77891695D01*
X93103006Y-77929790D02*
X93026816Y-77891695D01*
X93026816Y-77891695D02*
X92912530Y-77891695D01*
X92912530Y-77891695D02*
X92798244Y-77929790D01*
X92798244Y-77929790D02*
X92722054Y-78005980D01*
X92722054Y-78005980D02*
X92683959Y-78082171D01*
X92683959Y-78082171D02*
X92645863Y-78234552D01*
X92645863Y-78234552D02*
X92645863Y-78348838D01*
X92645863Y-78348838D02*
X92683959Y-78501219D01*
X92683959Y-78501219D02*
X92722054Y-78577409D01*
X92722054Y-78577409D02*
X92798244Y-78653600D01*
X92798244Y-78653600D02*
X92912530Y-78691695D01*
X92912530Y-78691695D02*
X92988721Y-78691695D01*
X92988721Y-78691695D02*
X93103006Y-78653600D01*
X93103006Y-78653600D02*
X93141102Y-78615504D01*
X93141102Y-78615504D02*
X93141102Y-78348838D01*
X93141102Y-78348838D02*
X92988721Y-78348838D01*
X93483959Y-78691695D02*
X93483959Y-77891695D01*
X93483959Y-78272647D02*
X93941102Y-78272647D01*
X93941102Y-78691695D02*
X93941102Y-77891695D01*
X94207768Y-77891695D02*
X94664911Y-77891695D01*
X94436339Y-78691695D02*
X94436339Y-77891695D01*
D13*
X92086695Y-95371428D02*
X92086695Y-94228571D01*
X92658123Y-94799999D02*
X91515266Y-94799999D01*
X91164700Y-96471428D02*
X91164700Y-95328571D01*
D14*
%TO.C,R2*%
X123462742Y-103077500D02*
X123937258Y-103077500D01*
X123462742Y-104122500D02*
X123937258Y-104122500D01*
%TO.C,C51*%
X94809420Y-93140000D02*
X95090580Y-93140000D01*
X94809420Y-94160000D02*
X95090580Y-94160000D01*
%TO.C,R44*%
X94577500Y-58137742D02*
X94577500Y-58612258D01*
X95622500Y-58137742D02*
X95622500Y-58612258D01*
D12*
%TO.C,J9*%
X78030000Y-56670000D02*
X80570000Y-56670000D01*
X78030000Y-79530000D02*
X78030000Y-56670000D01*
X80570000Y-79530000D02*
X78030000Y-79530000D01*
X80570000Y-79530000D02*
X80570000Y-56670000D01*
X82170000Y-56020000D02*
G75*
G02*
X81970000Y-56020000I-100000J0D01*
G01*
X81970000Y-56020000D02*
G75*
G02*
X82170000Y-56020000I100000J0D01*
G01*
D14*
%TO.C,R17*%
X110987500Y-103462258D02*
X110987500Y-102987742D01*
X112032500Y-103462258D02*
X112032500Y-102987742D01*
D15*
%TO.C,U10*%
X77300000Y-54000000D02*
G75*
G02*
X76900000Y-54000000I-200000J0D01*
G01*
X76900000Y-54000000D02*
G75*
G02*
X77300000Y-54000000I200000J0D01*
G01*
D14*
%TO.C,C35*%
X97990000Y-59109420D02*
X97990000Y-59390580D01*
X99010000Y-59109420D02*
X99010000Y-59390580D01*
%TO.C,R45*%
X116762742Y-67477500D02*
X117237258Y-67477500D01*
X116762742Y-68522500D02*
X117237258Y-68522500D01*
%TO.C,D8*%
X110775000Y-98427500D02*
X110775000Y-100712500D01*
X112245000Y-98427500D02*
X110775000Y-98427500D01*
X112245000Y-100712500D02*
X112245000Y-98427500D01*
D16*
%TO.C,G\u002A\u002A\u002A*%
G36*
X107643327Y-55291971D02*
G01*
X107934183Y-55316944D01*
X108237583Y-55356435D01*
X108258752Y-55359635D01*
X108450409Y-55393169D01*
X108653728Y-55436581D01*
X108862669Y-55488142D01*
X109071190Y-55546122D01*
X109273250Y-55608792D01*
X109462808Y-55674423D01*
X109633823Y-55741284D01*
X109714099Y-55776274D01*
X109750835Y-55792211D01*
X109776219Y-55801803D01*
X109781585Y-55803063D01*
X109798057Y-55809125D01*
X109834859Y-55825865D01*
X109887677Y-55851119D01*
X109952198Y-55882720D01*
X110024108Y-55918504D01*
X110099094Y-55956305D01*
X110172841Y-55993957D01*
X110241037Y-56029295D01*
X110299367Y-56060152D01*
X110343519Y-56084365D01*
X110354567Y-56090718D01*
X110401271Y-56117799D01*
X110437875Y-56138471D01*
X110458564Y-56149472D01*
X110461030Y-56150437D01*
X110478530Y-56158163D01*
X110515115Y-56179764D01*
X110567319Y-56212876D01*
X110631677Y-56255137D01*
X110704722Y-56304182D01*
X110782989Y-56357649D01*
X110863012Y-56413172D01*
X110941323Y-56468390D01*
X111014458Y-56520937D01*
X111078951Y-56568451D01*
X111121116Y-56600568D01*
X111322426Y-56765819D01*
X111527515Y-56950492D01*
X111729959Y-57148161D01*
X111923330Y-57352399D01*
X112101203Y-57556781D01*
X112199432Y-57678884D01*
X112241364Y-57734204D01*
X112290178Y-57800878D01*
X112343509Y-57875437D01*
X112398995Y-57954418D01*
X112454271Y-58034353D01*
X112506975Y-58111776D01*
X112554741Y-58183222D01*
X112595208Y-58245225D01*
X112626011Y-58294318D01*
X112644787Y-58327035D01*
X112649562Y-58338969D01*
X112656097Y-58352194D01*
X112673527Y-58383515D01*
X112698589Y-58427116D01*
X112709282Y-58445433D01*
X112730732Y-58483760D01*
X112759566Y-58537739D01*
X112793619Y-58603054D01*
X112830724Y-58675392D01*
X112868718Y-58750440D01*
X112905433Y-58823884D01*
X112938705Y-58891410D01*
X112966368Y-58948705D01*
X112986255Y-58991456D01*
X112996203Y-59015348D01*
X112996936Y-59018414D01*
X113002100Y-59035223D01*
X113015165Y-59067875D01*
X113022952Y-59085901D01*
X113072415Y-59204326D01*
X113124022Y-59339384D01*
X113175796Y-59484972D01*
X113225762Y-59634987D01*
X113271946Y-59783326D01*
X113312373Y-59923885D01*
X113345066Y-60050561D01*
X113365781Y-60145240D01*
X113372511Y-60176693D01*
X113382335Y-60219200D01*
X113384593Y-60228610D01*
X113398457Y-60293375D01*
X113414198Y-60379053D01*
X113430810Y-60478914D01*
X113447288Y-60586233D01*
X113462626Y-60694280D01*
X113475818Y-60796328D01*
X113485861Y-60885650D01*
X113490496Y-60937254D01*
X113494982Y-60994037D01*
X113500998Y-61067031D01*
X113507591Y-61144769D01*
X113511291Y-61187363D01*
X113522374Y-61382070D01*
X113523241Y-61586792D01*
X113513881Y-61785698D01*
X113511715Y-61812636D01*
X113505291Y-61889051D01*
X113498731Y-61968459D01*
X113493023Y-62038860D01*
X113490581Y-62069693D01*
X113484253Y-62137943D01*
X113475962Y-62210904D01*
X113468740Y-62264223D01*
X113459032Y-62328973D01*
X113448196Y-62402343D01*
X113440990Y-62451805D01*
X113423624Y-62565394D01*
X113406441Y-62665314D01*
X113390469Y-62745746D01*
X113384593Y-62771389D01*
X113374568Y-62814189D01*
X113366834Y-62849499D01*
X113365781Y-62854759D01*
X113341477Y-62964276D01*
X113307711Y-63093018D01*
X113266458Y-63234881D01*
X113219695Y-63383762D01*
X113169395Y-63533558D01*
X113117534Y-63678165D01*
X113066087Y-63811482D01*
X113022952Y-63914099D01*
X113007438Y-63950969D01*
X112998131Y-63976454D01*
X112996936Y-63981783D01*
X112990872Y-63998364D01*
X112974124Y-64035267D01*
X112948859Y-64088174D01*
X112917246Y-64152766D01*
X112881451Y-64224725D01*
X112843641Y-64299733D01*
X112805985Y-64373472D01*
X112770649Y-64441623D01*
X112739800Y-64499869D01*
X112715607Y-64543891D01*
X112709449Y-64554567D01*
X112682301Y-64601255D01*
X112661574Y-64637854D01*
X112650536Y-64658552D01*
X112649562Y-64661030D01*
X112641834Y-64678560D01*
X112620229Y-64715165D01*
X112587116Y-64767373D01*
X112544864Y-64831713D01*
X112495841Y-64904712D01*
X112442415Y-64982898D01*
X112386955Y-65062801D01*
X112331831Y-65140947D01*
X112279410Y-65213866D01*
X112232061Y-65278085D01*
X112199229Y-65321116D01*
X112005621Y-65555428D01*
X111791720Y-65789121D01*
X111564326Y-66015395D01*
X111330241Y-66227448D01*
X111121116Y-66399229D01*
X111066426Y-66440771D01*
X111000241Y-66489293D01*
X110926033Y-66542426D01*
X110847272Y-66597802D01*
X110767431Y-66653051D01*
X110689983Y-66705805D01*
X110618398Y-66753696D01*
X110556148Y-66794354D01*
X110506706Y-66825412D01*
X110473543Y-66844501D01*
X110461030Y-66849562D01*
X110447806Y-66856097D01*
X110416484Y-66873527D01*
X110372884Y-66898589D01*
X110354567Y-66909282D01*
X110316239Y-66930732D01*
X110262261Y-66959566D01*
X110196946Y-66993619D01*
X110124608Y-67030724D01*
X110049560Y-67068718D01*
X109976116Y-67105433D01*
X109908590Y-67138705D01*
X109851294Y-67166368D01*
X109808544Y-67186255D01*
X109784652Y-67196203D01*
X109781585Y-67196936D01*
X109764845Y-67202227D01*
X109732318Y-67215623D01*
X109714099Y-67223725D01*
X109615270Y-67265753D01*
X109496568Y-67311510D01*
X109364028Y-67359048D01*
X109223681Y-67406419D01*
X109081561Y-67451676D01*
X108943701Y-67492869D01*
X108816135Y-67528051D01*
X108704894Y-67555273D01*
X108654759Y-67565781D01*
X108623306Y-67572511D01*
X108580800Y-67582335D01*
X108571389Y-67584593D01*
X108500483Y-67599785D01*
X108407735Y-67616602D01*
X108298967Y-67634018D01*
X108251805Y-67640990D01*
X108184403Y-67650832D01*
X108111408Y-67661649D01*
X108064223Y-67668740D01*
X108001185Y-67677153D01*
X107927838Y-67685289D01*
X107869693Y-67690581D01*
X107809498Y-67695388D01*
X107733619Y-67701595D01*
X107654058Y-67708217D01*
X107612636Y-67711715D01*
X107493072Y-67718910D01*
X107356768Y-67722214D01*
X107214499Y-67721646D01*
X107077040Y-67717226D01*
X106973468Y-67710574D01*
X106898701Y-67704394D01*
X106817135Y-67697719D01*
X106744980Y-67691876D01*
X106737254Y-67691256D01*
X106668345Y-67684843D01*
X106595481Y-67676669D01*
X106535777Y-67668695D01*
X106471027Y-67659012D01*
X106397658Y-67648192D01*
X106348194Y-67640990D01*
X106234606Y-67623624D01*
X106134685Y-67606441D01*
X106054254Y-67590469D01*
X106028610Y-67584593D01*
X105985810Y-67574568D01*
X105950501Y-67566834D01*
X105945240Y-67565781D01*
X105835723Y-67541477D01*
X105706981Y-67507711D01*
X105565119Y-67466458D01*
X105416238Y-67419695D01*
X105266442Y-67369395D01*
X105121834Y-67317534D01*
X104988518Y-67266087D01*
X104885901Y-67222952D01*
X104849080Y-67207442D01*
X104823695Y-67198134D01*
X104818414Y-67196936D01*
X104801942Y-67190875D01*
X104765140Y-67174135D01*
X104712322Y-67148881D01*
X104647801Y-67117279D01*
X104575891Y-67081495D01*
X104500906Y-67043694D01*
X104427158Y-67006042D01*
X104358963Y-66970705D01*
X104300632Y-66939847D01*
X104256481Y-66915635D01*
X104245433Y-66909282D01*
X104198568Y-66882178D01*
X104161622Y-66861498D01*
X104140489Y-66850514D01*
X104137854Y-66849562D01*
X104120430Y-66841838D01*
X104083937Y-66820252D01*
X104031857Y-66787179D01*
X103967672Y-66744997D01*
X103894864Y-66696083D01*
X103816915Y-66642813D01*
X103737307Y-66587563D01*
X103659523Y-66532711D01*
X103587043Y-66480634D01*
X103523352Y-66433708D01*
X103478884Y-66399771D01*
X103244555Y-66205771D01*
X103010169Y-65990770D01*
X102781853Y-65760859D01*
X102565735Y-65522131D01*
X102421573Y-65348769D01*
X102385140Y-65301634D01*
X102340345Y-65241164D01*
X102289556Y-65170812D01*
X102235141Y-65094029D01*
X102179469Y-65014266D01*
X102124908Y-64934976D01*
X102073827Y-64859610D01*
X102028595Y-64791621D01*
X101991579Y-64734459D01*
X101965148Y-64691577D01*
X101951671Y-64666425D01*
X101950437Y-64662146D01*
X101943891Y-64648394D01*
X101926433Y-64616637D01*
X101901335Y-64572771D01*
X101890718Y-64554567D01*
X101869268Y-64516239D01*
X101840434Y-64462261D01*
X101806381Y-64396946D01*
X101769275Y-64324608D01*
X101731733Y-64250450D01*
X107189855Y-64250450D01*
X107205725Y-64287566D01*
X107237336Y-64338066D01*
X107282334Y-64399236D01*
X107338366Y-64468358D01*
X107403077Y-64542717D01*
X107474113Y-64619596D01*
X107549120Y-64696279D01*
X107625743Y-64770051D01*
X107701629Y-64838194D01*
X107765481Y-64890995D01*
X107824204Y-64936530D01*
X107882124Y-64980090D01*
X107934776Y-65018461D01*
X107977692Y-65048431D01*
X108006405Y-65066786D01*
X108015765Y-65071006D01*
X108030164Y-65078199D01*
X108060125Y-65096808D01*
X108089308Y-65116165D01*
X108118888Y-65136185D01*
X108142878Y-65151911D01*
X108166959Y-65166670D01*
X108196810Y-65183790D01*
X108238113Y-65206599D01*
X108296548Y-65238424D01*
X108316863Y-65249464D01*
X108465662Y-65323975D01*
X108627780Y-65394129D01*
X108791119Y-65454991D01*
X108918763Y-65494866D01*
X108974979Y-65510654D01*
X109037885Y-65528388D01*
X109064661Y-65535959D01*
X109202723Y-65569940D01*
X109365073Y-65600481D01*
X109553058Y-65627820D01*
X109655197Y-65640149D01*
X109703711Y-65643578D01*
X109774061Y-65645816D01*
X109860320Y-65646928D01*
X109956562Y-65646981D01*
X110056860Y-65646039D01*
X110155289Y-65644170D01*
X110245923Y-65641440D01*
X110322835Y-65637913D01*
X110380098Y-65633657D01*
X110395104Y-65631913D01*
X110434369Y-65622569D01*
X110453300Y-65609210D01*
X110454157Y-65605544D01*
X110442553Y-65590316D01*
X110410777Y-65565336D01*
X110363384Y-65533534D01*
X110304928Y-65497842D01*
X110239965Y-65461189D01*
X110185752Y-65432835D01*
X110141126Y-65403359D01*
X110088154Y-65357649D01*
X110031625Y-65301133D01*
X109976329Y-65239240D01*
X109927054Y-65177400D01*
X109888591Y-65121041D01*
X109865730Y-65075593D01*
X109863159Y-65067165D01*
X109860945Y-65047458D01*
X109866640Y-65029668D01*
X109882869Y-65012513D01*
X109912257Y-64994715D01*
X109957431Y-64974993D01*
X110021014Y-64952067D01*
X110105632Y-64924657D01*
X110213910Y-64891483D01*
X110238785Y-64883999D01*
X110411246Y-64831338D01*
X110560382Y-64783699D01*
X110689895Y-64739649D01*
X110803489Y-64697751D01*
X110904868Y-64656571D01*
X110997736Y-64614675D01*
X111085795Y-64570628D01*
X111172749Y-64522996D01*
X111177025Y-64520557D01*
X111221381Y-64492044D01*
X111271731Y-64454709D01*
X111323736Y-64412444D01*
X111373053Y-64369139D01*
X111415341Y-64328686D01*
X111446260Y-64294976D01*
X111461468Y-64271900D01*
X111461714Y-64265376D01*
X111446217Y-64259623D01*
X111409037Y-64251787D01*
X111356096Y-64242985D01*
X111305687Y-64235911D01*
X111280075Y-64233131D01*
X111247385Y-64230628D01*
X111206274Y-64228392D01*
X111155396Y-64226412D01*
X111093405Y-64224678D01*
X111018956Y-64223178D01*
X110930703Y-64221902D01*
X110827301Y-64220839D01*
X110707404Y-64219978D01*
X110569667Y-64219309D01*
X110412744Y-64218820D01*
X110235290Y-64218501D01*
X110035959Y-64218341D01*
X109813406Y-64218329D01*
X109566285Y-64218455D01*
X109293250Y-64218707D01*
X109178079Y-64218839D01*
X108945849Y-64219174D01*
X108721253Y-64219610D01*
X108505858Y-64220136D01*
X108301233Y-64220746D01*
X108108944Y-64221431D01*
X107930561Y-64222182D01*
X107767651Y-64222991D01*
X107621782Y-64223849D01*
X107494522Y-64224749D01*
X107387439Y-64225682D01*
X107302100Y-64226640D01*
X107240074Y-64227613D01*
X107202928Y-64228595D01*
X107192082Y-64229435D01*
X107189855Y-64250450D01*
X101731733Y-64250450D01*
X101731282Y-64249560D01*
X101694566Y-64176116D01*
X101661295Y-64108590D01*
X101633632Y-64051294D01*
X101613744Y-64008544D01*
X101603796Y-63984652D01*
X101603063Y-63981585D01*
X101597772Y-63964845D01*
X101584377Y-63932318D01*
X101576274Y-63914099D01*
X101534246Y-63815270D01*
X101488489Y-63696568D01*
X101440951Y-63564028D01*
X101393580Y-63423681D01*
X101348324Y-63281561D01*
X101307131Y-63143701D01*
X101271949Y-63016135D01*
X101244726Y-62904894D01*
X101234218Y-62854759D01*
X101227489Y-62823306D01*
X101217665Y-62780800D01*
X101215407Y-62771389D01*
X101200215Y-62700483D01*
X101183397Y-62607735D01*
X101165981Y-62498967D01*
X101159009Y-62451805D01*
X101156822Y-62436772D01*
X101825656Y-62436772D01*
X101836726Y-62573863D01*
X101869507Y-62718764D01*
X101921779Y-62865157D01*
X101991325Y-63006722D01*
X102067526Y-63125711D01*
X102146841Y-63224643D01*
X102242360Y-63326818D01*
X102349637Y-63428676D01*
X102464230Y-63526658D01*
X102581693Y-63617204D01*
X102697583Y-63696754D01*
X102807456Y-63761748D01*
X102906868Y-63808627D01*
X102931478Y-63817765D01*
X102985436Y-63834793D01*
X103053135Y-63853828D01*
X103126086Y-63872734D01*
X103195795Y-63889372D01*
X103253770Y-63901604D01*
X103284354Y-63906591D01*
X103300944Y-63906924D01*
X103344227Y-63907230D01*
X103413107Y-63907510D01*
X103506489Y-63907761D01*
X103623275Y-63907985D01*
X103762369Y-63908180D01*
X103922676Y-63908347D01*
X104103098Y-63908486D01*
X104302540Y-63908595D01*
X104519904Y-63908674D01*
X104754096Y-63908724D01*
X105004018Y-63908743D01*
X105268574Y-63908732D01*
X105546668Y-63908691D01*
X105837204Y-63908618D01*
X106139085Y-63908514D01*
X106451214Y-63908378D01*
X106772497Y-63908210D01*
X107101835Y-63908010D01*
X107411159Y-63907796D01*
X107864363Y-63907424D01*
X108290048Y-63906987D01*
X108688488Y-63906483D01*
X109059954Y-63905913D01*
X109404718Y-63905274D01*
X109723052Y-63904565D01*
X110015229Y-63903786D01*
X110281519Y-63902934D01*
X110522196Y-63902010D01*
X110737531Y-63901011D01*
X110927797Y-63899937D01*
X111093265Y-63898787D01*
X111234206Y-63897558D01*
X111350895Y-63896251D01*
X111443601Y-63894864D01*
X111512598Y-63893396D01*
X111558157Y-63891845D01*
X111580551Y-63890211D01*
X111581408Y-63890066D01*
X111693988Y-63856295D01*
X111810716Y-63798038D01*
X111929119Y-63717799D01*
X112046721Y-63618080D01*
X112161048Y-63501386D01*
X112269627Y-63370219D01*
X112369983Y-63227083D01*
X112459642Y-63074482D01*
X112529115Y-62931181D01*
X112549362Y-62882552D01*
X112572575Y-62823425D01*
X112595470Y-62762553D01*
X112614764Y-62708692D01*
X112627174Y-62670595D01*
X112628132Y-62667177D01*
X112638398Y-62628973D01*
X112650132Y-62584902D01*
X112650422Y-62583807D01*
X112678036Y-62451852D01*
X112695550Y-62307800D01*
X112702478Y-62161184D01*
X112698335Y-62021539D01*
X112684774Y-61909901D01*
X112671368Y-61844480D01*
X112654291Y-61774829D01*
X112635638Y-61708279D01*
X112617503Y-61652158D01*
X112601980Y-61613794D01*
X112598166Y-61606876D01*
X112586823Y-61582062D01*
X112585408Y-61576422D01*
X112574981Y-61551402D01*
X112551454Y-61510225D01*
X112518666Y-61458763D01*
X112480453Y-61402889D01*
X112440655Y-61348478D01*
X112415299Y-61316115D01*
X112369698Y-61264691D01*
X112318356Y-61213965D01*
X112272116Y-61174626D01*
X112270637Y-61173523D01*
X112230766Y-61143237D01*
X112199156Y-61117890D01*
X112184081Y-61104366D01*
X112149167Y-61075797D01*
X112092874Y-61041239D01*
X112020339Y-61003017D01*
X111936700Y-60963456D01*
X111847093Y-60924882D01*
X111756656Y-60889618D01*
X111670528Y-60859991D01*
X111599054Y-60839598D01*
X111454784Y-60806434D01*
X111319597Y-60781339D01*
X111185251Y-60763302D01*
X111043507Y-60751312D01*
X110886121Y-60744357D01*
X110808674Y-60742612D01*
X110510948Y-60737504D01*
X110504220Y-60358002D01*
X110501911Y-60254891D01*
X110498843Y-60158176D01*
X110495223Y-60072161D01*
X110491256Y-60001151D01*
X110487152Y-59949448D01*
X110483231Y-59921804D01*
X110471983Y-59869061D01*
X110462725Y-59812515D01*
X110461598Y-59803696D01*
X110450512Y-59732939D01*
X110432122Y-59647227D01*
X110405360Y-59541739D01*
X110395692Y-59506072D01*
X110319801Y-59276315D01*
X110222958Y-59062992D01*
X110105874Y-58867156D01*
X109969260Y-58689857D01*
X109813827Y-58532147D01*
X109648366Y-58400712D01*
X109614406Y-58377889D01*
X109571698Y-58350533D01*
X109526829Y-58322680D01*
X109486385Y-58298367D01*
X109456953Y-58281628D01*
X109445437Y-58276367D01*
X109431297Y-58271050D01*
X109398837Y-58257086D01*
X109354977Y-58237453D01*
X109353329Y-58236704D01*
X109270218Y-58202547D01*
X109173541Y-58168600D01*
X109072111Y-58137493D01*
X108974738Y-58111853D01*
X108890233Y-58094310D01*
X108862218Y-58090175D01*
X108759011Y-58077507D01*
X108675026Y-58067918D01*
X108604559Y-58061403D01*
X108541906Y-58057957D01*
X108481363Y-58057573D01*
X108417225Y-58060246D01*
X108343788Y-58065971D01*
X108255347Y-58074742D01*
X108146199Y-58086554D01*
X108119803Y-58089455D01*
X108064786Y-58097990D01*
X107991376Y-58112797D01*
X107907716Y-58131892D01*
X107821949Y-58153290D01*
X107742216Y-58175008D01*
X107676661Y-58195062D01*
X107654321Y-58202878D01*
X107523035Y-58252936D01*
X107412605Y-58298201D01*
X107317150Y-58341449D01*
X107230785Y-58385452D01*
X107147629Y-58432988D01*
X107087774Y-58470107D01*
X106901251Y-58601801D01*
X106734603Y-58745886D01*
X106589375Y-58900525D01*
X106467117Y-59063879D01*
X106369373Y-59234109D01*
X106297879Y-59408807D01*
X106282204Y-59456873D01*
X106270401Y-59493758D01*
X106264750Y-59512324D01*
X106264586Y-59513019D01*
X106261565Y-59529119D01*
X106254826Y-59565142D01*
X106245752Y-59613698D01*
X106244558Y-59620090D01*
X106225857Y-59720213D01*
X106185401Y-59656422D01*
X106117085Y-59569784D01*
X106024384Y-59484639D01*
X105910699Y-59403009D01*
X105779430Y-59326915D01*
X105633978Y-59258380D01*
X105477742Y-59199426D01*
X105354704Y-59162492D01*
X105288207Y-59149033D01*
X105203569Y-59138263D01*
X105108168Y-59130494D01*
X105009387Y-59126036D01*
X104914604Y-59125201D01*
X104831200Y-59128299D01*
X104766555Y-59135640D01*
X104757887Y-59137349D01*
X104610951Y-59177257D01*
X104484287Y-59230597D01*
X104372506Y-59300136D01*
X104271852Y-59387020D01*
X104212970Y-59446680D01*
X104169045Y-59495556D01*
X104134410Y-59541489D01*
X104103396Y-59592321D01*
X104070337Y-59655892D01*
X104055240Y-59686707D01*
X104011921Y-59780155D01*
X103980116Y-59859862D01*
X103956324Y-59935470D01*
X103939233Y-60006291D01*
X103926443Y-60065392D01*
X103912705Y-60128213D01*
X103908956Y-60145211D01*
X103894082Y-60235615D01*
X103883489Y-60352496D01*
X103877239Y-60494863D01*
X103875399Y-60661725D01*
X103875403Y-60663591D01*
X103875916Y-60876253D01*
X103840666Y-60866714D01*
X103744875Y-60848315D01*
X103634420Y-60839097D01*
X103520247Y-60839178D01*
X103413308Y-60848673D01*
X103346882Y-60861420D01*
X103112642Y-60934499D01*
X102887527Y-61032506D01*
X102674552Y-61153740D01*
X102476738Y-61296502D01*
X102311785Y-61444347D01*
X102254998Y-61502360D01*
X102201243Y-61560064D01*
X102155711Y-61611697D01*
X102123593Y-61651498D01*
X102117674Y-61659792D01*
X102090917Y-61697887D01*
X102069713Y-61725895D01*
X102060298Y-61736257D01*
X102047755Y-61752530D01*
X102027758Y-61786735D01*
X102002900Y-61833494D01*
X101975773Y-61887429D01*
X101948968Y-61943163D01*
X101925079Y-61995316D01*
X101906698Y-62038511D01*
X101896417Y-62067370D01*
X101896227Y-62076641D01*
X101892155Y-62087945D01*
X101881460Y-62115449D01*
X101880324Y-62118326D01*
X101865777Y-62165967D01*
X101851319Y-62231328D01*
X101838671Y-62304384D01*
X101829553Y-62375114D01*
X101825685Y-62433495D01*
X101825656Y-62436772D01*
X101156822Y-62436772D01*
X101149202Y-62384406D01*
X101138472Y-62311414D01*
X101131468Y-62264223D01*
X101126049Y-62221663D01*
X101119082Y-62157537D01*
X101111176Y-62077984D01*
X101102940Y-61989145D01*
X101094986Y-61897157D01*
X101094890Y-61896006D01*
X101080441Y-61615008D01*
X101082930Y-61321061D01*
X101102479Y-61011605D01*
X101139211Y-60684077D01*
X101159680Y-60541247D01*
X101193512Y-60347515D01*
X101237348Y-60142243D01*
X101289446Y-59931518D01*
X101348063Y-59721433D01*
X101411455Y-59518076D01*
X101477879Y-59327537D01*
X101545591Y-59155907D01*
X101576274Y-59085901D01*
X101592215Y-59049115D01*
X101601807Y-59023632D01*
X101603063Y-59018216D01*
X101609128Y-59001635D01*
X101625876Y-58964732D01*
X101651140Y-58911826D01*
X101682754Y-58847234D01*
X101718549Y-58775274D01*
X101756358Y-58700266D01*
X101794015Y-58626528D01*
X101829351Y-58558376D01*
X101860199Y-58500130D01*
X101884392Y-58456108D01*
X101890550Y-58445433D01*
X101917721Y-58398583D01*
X101938456Y-58361644D01*
X101949477Y-58340502D01*
X101950437Y-58337854D01*
X101958170Y-58320624D01*
X101979787Y-58284305D01*
X102012922Y-58232348D01*
X102055205Y-58168206D01*
X102104267Y-58095330D01*
X102157742Y-58017172D01*
X102213259Y-57937183D01*
X102268451Y-57858816D01*
X102320950Y-57785522D01*
X102368385Y-57720753D01*
X102408390Y-57667961D01*
X102421573Y-57651230D01*
X102619589Y-57416605D01*
X102835979Y-57183530D01*
X103063836Y-56958914D01*
X103296255Y-56749663D01*
X103451094Y-56621498D01*
X103498955Y-56584595D01*
X103559999Y-56539436D01*
X103630781Y-56488383D01*
X103707854Y-56433802D01*
X103787771Y-56378056D01*
X103867085Y-56323509D01*
X103942350Y-56272526D01*
X104010119Y-56227470D01*
X104066946Y-56190705D01*
X104109384Y-56164597D01*
X104133986Y-56151507D01*
X104137854Y-56150437D01*
X104151597Y-56143877D01*
X104183334Y-56126381D01*
X104227176Y-56101227D01*
X104245433Y-56090550D01*
X104283809Y-56069030D01*
X104337836Y-56040140D01*
X104403194Y-56006046D01*
X104475565Y-55968916D01*
X104550632Y-55930917D01*
X104624075Y-55894217D01*
X104691577Y-55860983D01*
X104748820Y-55833383D01*
X104791485Y-55813583D01*
X104815254Y-55803751D01*
X104818216Y-55803063D01*
X104835083Y-55797769D01*
X104867696Y-55784366D01*
X104885901Y-55776274D01*
X104986589Y-55733443D01*
X105107065Y-55687000D01*
X105241231Y-55638914D01*
X105382992Y-55591153D01*
X105526251Y-55545686D01*
X105664911Y-55504481D01*
X105792876Y-55469507D01*
X105904051Y-55442733D01*
X105945240Y-55434218D01*
X105976693Y-55427489D01*
X106019200Y-55417665D01*
X106028610Y-55415407D01*
X106074394Y-55405360D01*
X106131823Y-55394100D01*
X106167560Y-55387684D01*
X106485543Y-55338864D01*
X106786122Y-55304962D01*
X107075286Y-55285900D01*
X107359024Y-55281597D01*
X107643327Y-55291971D01*
G37*
D14*
%TO.C,C22*%
X107990000Y-77809420D02*
X107990000Y-78090580D01*
X109010000Y-77809420D02*
X109010000Y-78090580D01*
%TO.C,J6*%
X135190000Y-77270000D02*
X135190000Y-87430000D01*
X135190000Y-87430000D02*
X142810000Y-87430000D01*
X141540000Y-77270000D02*
X141540000Y-87430000D01*
X142810000Y-77270000D02*
X135190000Y-77270000D01*
X142810000Y-87430000D02*
X142810000Y-77270000D01*
%TO.C,J4*%
X135190000Y-87870000D02*
X135190000Y-98030000D01*
X135190000Y-98030000D02*
X142810000Y-98030000D01*
X141540000Y-87870000D02*
X141540000Y-98030000D01*
X142810000Y-87870000D02*
X135190000Y-87870000D01*
X142810000Y-98030000D02*
X142810000Y-87870000D01*
%TO.C,D1*%
X91400000Y-92660000D02*
X91400000Y-86850000D01*
X91400000Y-92660000D02*
X95700000Y-92660000D01*
X95700000Y-92660000D02*
X95700000Y-86850000D01*
%TO.C,J2*%
X135190000Y-56070000D02*
X135190000Y-66230000D01*
X135190000Y-66230000D02*
X142810000Y-66230000D01*
X141540000Y-56070000D02*
X141540000Y-66230000D01*
X142810000Y-56070000D02*
X135190000Y-56070000D01*
X142810000Y-66230000D02*
X142810000Y-56070000D01*
%TO.C,D10*%
X96887500Y-57735000D02*
X99172500Y-57735000D01*
X99172500Y-56265000D02*
X96887500Y-56265000D01*
X99172500Y-57735000D02*
X99172500Y-56265000D01*
%TO.C,R21*%
X86777500Y-100862742D02*
X86777500Y-101337258D01*
X87822500Y-100862742D02*
X87822500Y-101337258D01*
%TO.C,J8*%
X135190000Y-66660000D02*
X135190000Y-76820000D01*
X135190000Y-76820000D02*
X142810000Y-76820000D01*
X141540000Y-66660000D02*
X141540000Y-76820000D01*
X142810000Y-66660000D02*
X135190000Y-66660000D01*
X142810000Y-76820000D02*
X142810000Y-66660000D01*
%TO.C,R20*%
X88677500Y-100862742D02*
X88677500Y-101337258D01*
X89722500Y-100862742D02*
X89722500Y-101337258D01*
%TO.C,D2*%
X116465000Y-98427500D02*
X116465000Y-100712500D01*
X117935000Y-98427500D02*
X116465000Y-98427500D01*
X117935000Y-100712500D02*
X117935000Y-98427500D01*
%TO.C,D7*%
X112675000Y-98427500D02*
X112675000Y-100712500D01*
X114145000Y-98427500D02*
X112675000Y-98427500D01*
X114145000Y-100712500D02*
X114145000Y-98427500D01*
%TO.C,J3*%
X126840000Y-102640000D02*
X126840000Y-99440000D01*
X131740000Y-97840000D02*
X129140000Y-97840000D01*
X132240000Y-104720000D02*
X128640000Y-104720000D01*
X134040000Y-102640000D02*
X134040000Y-99440000D01*
%TO.C,J7*%
X91980000Y-101215000D02*
X91980000Y-99515000D01*
X101320000Y-101215000D02*
X101320000Y-99515000D01*
%TO.C,U3*%
X109890000Y-69365000D02*
X109890000Y-73075000D01*
X109890000Y-69365000D02*
X125610000Y-69365000D01*
X109890000Y-73775000D02*
X109890000Y-85085000D01*
X109890000Y-85085000D02*
X125610000Y-85085000D01*
X125610000Y-69365000D02*
X125610000Y-85085000D01*
X109890000Y-73425000D02*
X109560000Y-73665000D01*
X109560000Y-73185000D01*
X109890000Y-73425000D01*
G36*
X109890000Y-73425000D02*
G01*
X109560000Y-73665000D01*
X109560000Y-73185000D01*
X109890000Y-73425000D01*
G37*
%TO.C,J5*%
X103515000Y-98685000D02*
X103580000Y-98685000D01*
X103515000Y-102315000D02*
X103515000Y-98685000D01*
X103515000Y-102315000D02*
X103580000Y-102315000D01*
X103580000Y-103590000D02*
X103580000Y-102315000D01*
X110020000Y-98685000D02*
X110085000Y-98685000D01*
X110020000Y-102315000D02*
X110085000Y-102315000D01*
X110085000Y-102315000D02*
X110085000Y-98685000D01*
%TO.C,D3*%
X114575000Y-98427500D02*
X114575000Y-100712500D01*
X116045000Y-98427500D02*
X114575000Y-98427500D01*
X116045000Y-100712500D02*
X116045000Y-98427500D01*
%TO.C,C9*%
X119965580Y-102990000D02*
X119684420Y-102990000D01*
X119965580Y-104010000D02*
X119684420Y-104010000D01*
%TO.C,C43*%
X91284420Y-71390000D02*
X91565580Y-71390000D01*
X91284420Y-72410000D02*
X91565580Y-72410000D01*
%TO.C,J1*%
X72090000Y-81640000D02*
X86400000Y-81640000D01*
X72090000Y-97360000D02*
X72090000Y-81640000D01*
X72090000Y-97360000D02*
X86400000Y-97360000D01*
X90510000Y-90790000D02*
X90510000Y-87050000D01*
X86400000Y-81640000D02*
G75*
G02*
X90330413Y-84548352I0J-4110000D01*
G01*
X89922958Y-95366806D02*
G75*
G02*
X86400000Y-97360000I-3522957J2116805D01*
G01*
%TO.C,R9*%
X116687500Y-103437258D02*
X116687500Y-102962742D01*
X117732500Y-103437258D02*
X117732500Y-102962742D01*
%TO.C,R10*%
X114787500Y-103437258D02*
X114787500Y-102962742D01*
X115832500Y-103437258D02*
X115832500Y-102962742D01*
%TO.C,R16*%
X112887500Y-103437258D02*
X112887500Y-102962742D01*
X113932500Y-103437258D02*
X113932500Y-102962742D01*
%TO.C,C23*%
X107990000Y-74640580D02*
X107990000Y-74359420D01*
X109010000Y-74640580D02*
X109010000Y-74359420D01*
%TO.C,C24*%
X120334420Y-67465000D02*
X120615580Y-67465000D01*
X120334420Y-68485000D02*
X120615580Y-68485000D01*
%TD*%
M02*
