%TF.GenerationSoftware,KiCad,Pcbnew,9.0.2+dfsg-1*%
%TF.CreationDate,2025-11-29T03:23:50-08:00*%
%TF.ProjectId,rc-plane,72632d70-6c61-46e6-952e-6b696361645f,rev?*%
%TF.SameCoordinates,Original*%
%TF.FileFunction,Paste,Top*%
%TF.FilePolarity,Positive*%
%FSLAX46Y46*%
G04 Gerber Fmt 4.6, Leading zero omitted, Abs format (unit mm)*
G04 Created by KiCad (PCBNEW 9.0.2+dfsg-1) date 2025-11-29 03:23:50*
%MOMM*%
%LPD*%
G01*
G04 APERTURE LIST*
G04 Aperture macros list*
%AMRoundRect*
0 Rectangle with rounded corners*
0 $1 Rounding radius*
0 $2 $3 $4 $5 $6 $7 $8 $9 X,Y pos of 4 corners*
0 Add a 4 corners polygon primitive as box body*
4,1,4,$2,$3,$4,$5,$6,$7,$8,$9,$2,$3,0*
0 Add four circle primitives for the rounded corners*
1,1,$1+$1,$2,$3*
1,1,$1+$1,$4,$5*
1,1,$1+$1,$6,$7*
1,1,$1+$1,$8,$9*
0 Add four rect primitives between the rounded corners*
20,1,$1+$1,$2,$3,$4,$5,0*
20,1,$1+$1,$4,$5,$6,$7,0*
20,1,$1+$1,$6,$7,$8,$9,0*
20,1,$1+$1,$8,$9,$2,$3,0*%
G04 Aperture macros list end*
%ADD10RoundRect,0.200000X-0.200000X-0.275000X0.200000X-0.275000X0.200000X0.275000X-0.200000X0.275000X0*%
%ADD11RoundRect,0.225000X-0.225000X-0.250000X0.225000X-0.250000X0.225000X0.250000X-0.225000X0.250000X0*%
%ADD12RoundRect,0.200000X-0.275000X0.200000X-0.275000X-0.200000X0.275000X-0.200000X0.275000X0.200000X0*%
%ADD13RoundRect,0.200000X0.275000X-0.200000X0.275000X0.200000X-0.275000X0.200000X-0.275000X-0.200000X0*%
%ADD14RoundRect,0.225000X-0.250000X0.225000X-0.250000X-0.225000X0.250000X-0.225000X0.250000X0.225000X0*%
%ADD15RoundRect,0.218750X-0.256250X0.218750X-0.256250X-0.218750X0.256250X-0.218750X0.256250X0.218750X0*%
%ADD16RoundRect,0.250000X0.900000X-1.000000X0.900000X1.000000X-0.900000X1.000000X-0.900000X-1.000000X0*%
%ADD17RoundRect,0.218750X0.218750X0.256250X-0.218750X0.256250X-0.218750X-0.256250X0.218750X-0.256250X0*%
%ADD18RoundRect,0.150000X-0.150000X-0.425000X0.150000X-0.425000X0.150000X0.425000X-0.150000X0.425000X0*%
%ADD19RoundRect,0.075000X-0.075000X-0.500000X0.075000X-0.500000X0.075000X0.500000X-0.075000X0.500000X0*%
%ADD20O,1.000000X2.100000*%
%ADD21O,1.000000X1.800000*%
%ADD22R,0.720000X0.580000*%
%ADD23R,0.580000X0.720000*%
%ADD24R,0.740000X2.400000*%
%ADD25RoundRect,0.225000X0.225000X0.250000X-0.225000X0.250000X-0.225000X-0.250000X0.225000X-0.250000X0*%
%ADD26RoundRect,0.225000X0.250000X-0.225000X0.250000X0.225000X-0.250000X0.225000X-0.250000X-0.225000X0*%
G04 APERTURE END LIST*
D10*
%TO.C,R2*%
X122875000Y-103600000D03*
X124525000Y-103600000D03*
%TD*%
D11*
%TO.C,C51*%
X94175000Y-93650000D03*
X95725000Y-93650000D03*
%TD*%
D12*
%TO.C,R44*%
X95100000Y-57550000D03*
X95100000Y-59200000D03*
%TD*%
D13*
%TO.C,R17*%
X111510000Y-104050000D03*
X111510000Y-102400000D03*
%TD*%
D14*
%TO.C,C35*%
X98500000Y-58475000D03*
X98500000Y-60025000D03*
%TD*%
D10*
%TO.C,R45*%
X116175000Y-68000000D03*
X117825000Y-68000000D03*
%TD*%
D15*
%TO.C,D8*%
X111510000Y-99125000D03*
X111510000Y-100700000D03*
%TD*%
D14*
%TO.C,C22*%
X108500000Y-77175000D03*
X108500000Y-78725000D03*
%TD*%
D16*
%TO.C,D1*%
X93550000Y-91150000D03*
X93550000Y-86850000D03*
%TD*%
D17*
%TO.C,D10*%
X98475000Y-57000000D03*
X96900000Y-57000000D03*
%TD*%
D12*
%TO.C,R21*%
X87300000Y-100275000D03*
X87300000Y-101925000D03*
%TD*%
%TO.C,R20*%
X89200000Y-100275000D03*
X89200000Y-101925000D03*
%TD*%
D15*
%TO.C,D2*%
X117200000Y-99125000D03*
X117200000Y-100700000D03*
%TD*%
%TO.C,D7*%
X113410000Y-99125000D03*
X113410000Y-100700000D03*
%TD*%
D18*
%TO.C,J7*%
X93450000Y-97635000D03*
X94250000Y-97635000D03*
D19*
X95400000Y-97635000D03*
X96400000Y-97635000D03*
X96900000Y-97635000D03*
X97900000Y-97635000D03*
D18*
X99050000Y-97635000D03*
X99850000Y-97635000D03*
X99850000Y-97635000D03*
X99050000Y-97635000D03*
D19*
X98400000Y-97635000D03*
X97400000Y-97635000D03*
X95900000Y-97635000D03*
X94900000Y-97635000D03*
D18*
X94250000Y-97635000D03*
X93450000Y-97635000D03*
D20*
X92330000Y-98210000D03*
D21*
X92330000Y-102390000D03*
D20*
X100970000Y-98210000D03*
D21*
X100970000Y-102390000D03*
%TD*%
D22*
%TO.C,U3*%
X110650000Y-73000000D03*
X110650000Y-73850000D03*
X110650000Y-74900000D03*
X110650000Y-75750000D03*
X110650000Y-76800000D03*
X110650000Y-77650000D03*
X110650000Y-78700000D03*
X110650000Y-79550000D03*
X110650000Y-80600000D03*
X110650000Y-81450000D03*
X111650000Y-73000000D03*
X111650000Y-73850000D03*
X111650000Y-74900000D03*
X111650000Y-75750000D03*
X111650000Y-76800000D03*
X111650000Y-77650000D03*
X111650000Y-78700000D03*
X111650000Y-79550000D03*
X111650000Y-80600000D03*
X111650000Y-81450000D03*
D23*
X113525000Y-70125000D03*
X113525000Y-71125000D03*
X113525000Y-83325000D03*
X113525000Y-84325000D03*
X114375000Y-70125000D03*
X114375000Y-71125000D03*
X114375000Y-83325000D03*
X114375000Y-84325000D03*
X115425000Y-70125000D03*
X115425000Y-71125000D03*
X115425000Y-83325000D03*
X115425000Y-84325000D03*
X116275000Y-70125000D03*
X116275000Y-71125000D03*
X116275000Y-83325000D03*
X116275000Y-84325000D03*
X117325000Y-70125000D03*
X117325000Y-71125000D03*
X117325000Y-83325000D03*
X117325000Y-84325000D03*
X118175000Y-70125000D03*
X118175000Y-71125000D03*
X118175000Y-83325000D03*
X118175000Y-84325000D03*
X119225000Y-70125000D03*
X119225000Y-71125000D03*
X119225000Y-83325000D03*
X119225000Y-84325000D03*
X120075000Y-70125000D03*
X120075000Y-71125000D03*
X120075000Y-83325000D03*
X120075000Y-84325000D03*
X121125000Y-70125000D03*
X121125000Y-71125000D03*
X121125000Y-83325000D03*
X121125000Y-84325000D03*
X121975000Y-70125000D03*
X121975000Y-71125000D03*
X121975000Y-83325000D03*
X121975000Y-84325000D03*
D22*
X123850000Y-73000000D03*
X123850000Y-73850000D03*
X123850000Y-74900000D03*
X123850000Y-75750000D03*
X123850000Y-76800000D03*
X123850000Y-77650000D03*
X123850000Y-78700000D03*
X123850000Y-79550000D03*
X123850000Y-80600000D03*
X123850000Y-81450000D03*
X124850000Y-73000000D03*
X124850000Y-73850000D03*
X124850000Y-74900000D03*
X124850000Y-75750000D03*
X124850000Y-76800000D03*
X124850000Y-77650000D03*
X124850000Y-78700000D03*
X124850000Y-79550000D03*
X124850000Y-80600000D03*
X124850000Y-81450000D03*
%TD*%
D24*
%TO.C,J5*%
X104260000Y-102450000D03*
X104260000Y-98550000D03*
X105530000Y-102450000D03*
X105530000Y-98550000D03*
X106800000Y-102450000D03*
X106800000Y-98550000D03*
X108070000Y-102450000D03*
X108070000Y-98550000D03*
X109340000Y-102450000D03*
X109340000Y-98550000D03*
%TD*%
D15*
%TO.C,D3*%
X115310000Y-99125000D03*
X115310000Y-100700000D03*
%TD*%
D25*
%TO.C,C9*%
X120600000Y-103500000D03*
X119050000Y-103500000D03*
%TD*%
D11*
%TO.C,C43*%
X90650000Y-71900000D03*
X92200000Y-71900000D03*
%TD*%
D13*
%TO.C,R9*%
X117210000Y-104025000D03*
X117210000Y-102375000D03*
%TD*%
%TO.C,R10*%
X115310000Y-104025000D03*
X115310000Y-102375000D03*
%TD*%
%TO.C,R16*%
X113410000Y-104025000D03*
X113410000Y-102375000D03*
%TD*%
D26*
%TO.C,C23*%
X108500000Y-75275000D03*
X108500000Y-73725000D03*
%TD*%
D11*
%TO.C,C24*%
X119700000Y-67975000D03*
X121250000Y-67975000D03*
%TD*%
M02*
